<?xml version="1.0" encoding="UTF-8"?>
<svg version="1.1" xmlns="http://www.w3.org/2000/svg" width="1254" height="1254">
<path d="M0 0 C413.82 0 827.64 0 1254 0 C1254 413.82 1254 827.64 1254 1254 C840.18 1254 426.36 1254 0 1254 C0 840.18 0 426.36 0 0 Z " fill="#FDFDFD" transform="translate(0,0)"/>
<path d="M0 0 C1.1104112 -0.00551503 1.1104112 -0.00551503 2.24325496 -0.01114148 C4.72498728 -0.02215865 7.20667769 -0.02601882 9.68843079 -0.02983093 C11.46750013 -0.03609708 13.24656816 -0.04274402 15.02563477 -0.04974365 C20.86936026 -0.07076882 26.71308598 -0.08114474 32.55683899 -0.09111023 C34.56999538 -0.09515839 36.58315164 -0.09927533 38.59630775 -0.10346031 C48.05498588 -0.12250875 57.51365621 -0.1367404 66.97234982 -0.14507228 C77.88395908 -0.15484317 88.7953654 -0.18116032 99.70690316 -0.22157317 C108.14527294 -0.25175169 116.5835846 -0.26654282 125.02200729 -0.26985329 C130.05981409 -0.27220183 135.097404 -0.28113676 140.13515282 -0.30631447 C144.8769614 -0.32963048 149.61841082 -0.33381422 154.36026192 -0.32355309 C156.09644644 -0.32305847 157.83264886 -0.32935693 159.56877899 -0.34310913 C169.8479734 -0.41994836 178.29196556 -0.29565241 186.54512024 6.52217102 C191.00337763 12.02943015 192.01242535 16.21936207 192.16621399 23.17060852 C190.89653471 30.7886842 186.02926572 36.59950622 181.29512024 42.45967102 C180.0326199 44.05177093 178.77226613 45.64557497 177.51387024 47.24092102 C176.87320618 48.0530304 176.23254211 48.86513977 175.57246399 49.70185852 C172.56804487 53.56380178 169.67981626 57.50793078 166.79512024 61.45967102 C161.1883118 69.12433524 155.47054843 76.69678391 149.70185852 84.2401886 C145.15819177 90.18481015 140.65101797 96.1551149 136.17012024 102.14717102 C130.9137903 109.17442087 125.61902572 116.17097611 120.29512024 123.14717102 C113.63783021 131.87274533 106.99338036 140.60352692 100.50996399 149.45967102 C94.66459212 157.43841431 88.77423073 165.36389469 82.67012024 173.14717102 C77.33951934 179.94459651 72.1719536 186.8438522 67.07173157 193.81538391 C61.24440882 201.76542994 55.2620325 209.59401332 49.27558899 217.42451477 C46.55412949 220.98452703 43.85139129 224.55682141 41.17012024 228.14717102 C37.10229622 233.59167736 32.98056101 238.99431686 28.85762024 244.39717102 C22.08153234 253.27919158 15.35772319 262.19842357 8.67012024 271.14717102 C-0.64572497 283.61172849 -10.05884927 295.99809079 -19.54862976 308.33076477 C-25.75925999 316.41251012 -31.86432709 324.56145308 -37.89042664 332.7816925 C-42.28662265 338.7647992 -46.76036385 344.68471624 -51.26737976 350.58467102 C-51.93019958 351.45656067 -52.59301941 352.32845032 -53.27592468 353.22676086 C-56.63735301 357.64473137 -60.02522212 362.03722603 -63.46659851 366.39326477 C-74.81129375 380.87693305 -82.28239086 393.14873215 -80.58964539 412.14082336 C-78.93133818 424.94906453 -70.10667333 434.55608574 -62.36894226 444.29951477 C-57.53356831 450.39921242 -52.83660723 456.60562571 -48.1204071 462.79756165 C-46.24040385 465.26458528 -44.35758812 467.72944443 -42.47441101 470.19404602 C-35.12428828 479.81957048 -27.82007623 489.47741202 -20.56401062 499.17402649 C-15.54356011 505.87732826 -10.4558754 512.52428022 -5.32987976 519.14717102 C5.42175068 533.0817282 16.1301915 547.05160367 26.67012024 561.14717102 C33.93655234 570.86469049 41.30778771 580.50223915 48.67012024 590.14717102 C56.65552432 600.60835001 64.6349589 611.07224921 72.5148468 621.61323547 C75.93427459 626.18201638 79.40061259 630.71205606 82.89131165 635.22651672 C86.11022018 639.39782924 89.26947481 643.61165184 92.42012024 647.83467102 C96.72356499 653.60061999 101.108579 659.29562095 105.54512024 664.95967102 C110.96971067 671.88984681 116.22170436 678.92996195 121.41523743 686.03437805 C126.01898591 692.31209992 130.76597072 698.46613373 135.56513977 704.59516907 C139.77812786 709.9813123 143.90776129 715.42276843 147.99531555 720.90449524 C152.13770119 726.45442164 156.33798446 731.95872574 160.54512024 737.45967102 C165.69847456 744.201589 170.78435022 750.98617049 175.79512024 757.83467102 C181.00076877 764.94695779 186.34501549 771.93618046 191.77656555 778.87715149 C195.62350761 783.79365181 199.40210703 788.75360272 203.13105774 793.76045227 C206.60862088 798.41618227 210.14493049 803.02748302 213.67012024 807.64717102 C222.81975556 819.64693574 222.81975556 819.64693574 226.92012024 825.08467102 C227.56465149 825.93931946 228.20918274 826.7939679 228.87324524 827.67451477 C233.9323798 834.63632386 236.70980363 839.36259977 235.67012024 848.14717102 C233.80419665 855.74159887 230.26755294 860.9099783 223.67012024 865.14717102 C218.27915469 867.86410459 214.14405115 868.58183935 208.15100098 868.53485107 C206.90304598 868.54292938 206.90304598 868.54292938 205.62987977 868.55117089 C202.85562438 868.56542266 200.08184801 868.55835361 197.30757141 868.55122375 C195.31293353 868.55692885 193.31829891 868.56389365 191.32366943 868.57202148 C185.91444698 868.58995457 180.50538673 868.58878394 175.09614348 868.5830791 C170.57591089 868.57998683 166.05570944 868.58608028 161.53548127 868.59211785 C150.86801358 868.60616257 140.20062597 868.60460278 129.53315735 868.59321594 C118.53989362 868.5817404 107.54687401 868.59580115 96.55364245 868.62261242 C87.10542275 868.64479012 77.65727957 868.65140195 68.20903569 868.64553601 C62.57044176 868.64216952 56.93200421 868.64456088 51.29343224 868.66178703 C45.98850921 868.67728649 40.68394679 868.67326714 35.37903786 868.65448189 C33.43687635 868.65080404 31.49468795 868.65388092 29.55255127 868.66436768 C16.57836694 868.72905027 6.35802742 868.02611897 -4.06034851 859.43232727 C-8.33277173 855.13048978 -11.58454993 850.08093192 -14.98222351 845.08711243 C-17.27500504 841.78667004 -19.71289015 838.59755638 -22.14237976 835.39717102 C-26.38335715 829.78223129 -30.53967473 824.11383997 -34.64237976 818.39717102 C-39.27698989 811.9445608 -43.98983509 805.557165 -48.76737976 799.20967102 C-58.27572881 786.57664428 -67.67007487 773.8656399 -76.89237976 761.02217102 C-81.6241404 754.43493026 -86.49321046 747.97024633 -91.4485321 741.55000305 C-95.40672014 736.40328464 -99.23515068 731.17427317 -103.01737976 725.89717102 C-107.46182818 719.69624187 -112.01113218 713.61263691 -116.69316101 707.58857727 C-119.85286487 703.49491105 -122.89884122 699.31844033 -125.95487976 695.14717102 C-131.12905593 688.08796837 -136.38728671 681.09894516 -141.70487976 674.14717102 C-146.27624932 668.16897857 -150.82177381 662.18283051 -155.21659851 656.07295227 C-158.20724874 651.93247718 -161.23744013 647.82144785 -164.26737976 643.70967102 C-165.18801208 642.46032776 -165.18801208 642.46032776 -166.12724304 641.18574524 C-169.3435655 636.82584146 -172.57233808 632.47635258 -175.82987976 628.14717102 C-181.54307175 620.55097942 -187.18331194 612.90157267 -192.79570007 605.23066711 C-194.03929457 603.54180088 -195.30272716 601.86755466 -196.57206726 600.19795227 C-201.41583615 593.68577409 -204.52721285 586.73435215 -207.32987976 579.14717102 C-207.60783386 578.44350403 -207.88578796 577.73983704 -208.17216492 577.0148468 C-218.17741164 551.11193534 -215.76105252 519.72887824 -204.89237976 494.52217102 C-203.74982383 492.03771176 -202.54901823 489.59633312 -201.32987976 487.14717102 C-200.83487976 486.13138977 -200.33987976 485.11560852 -199.82987976 484.06904602 C-196.40650591 477.40835124 -192.11659546 471.87514006 -187.32987976 466.14717102 C-185.38127165 463.73936366 -183.44948112 461.31823245 -181.51737976 458.89717102 C-181.00409119 458.25610413 -180.49080261 457.61503723 -179.96195984 456.95454407 C-176.57906351 452.72658469 -173.227987 448.47498358 -169.89237976 444.20967102 C-161.65714278 433.68911459 -153.15950525 423.37951571 -144.69706726 413.04170227 C-134.19465208 400.20592033 -134.19465208 400.20592033 -123.89237976 387.20967102 C-118.10739341 379.79712711 -112.11007126 372.56437337 -106.1204071 365.3170929 C-103.15853037 361.72762461 -100.2093903 358.127933 -97.26737976 354.52217102 C-96.74353699 353.88360168 -96.21969421 353.24503235 -95.67997742 352.58711243 C-88.29059983 344.38782477 -88.29059983 344.38782477 -86.03300476 334.13545227 C-86.62047243 330.20096484 -87.27928301 326.5979951 -89.64237976 323.33467102 C-93.38683987 320.69968058 -96.96352401 319.89728252 -101.48440552 319.8888855 C-102.50072052 319.8820575 -103.51703552 319.87522949 -104.56414795 319.86819458 C-105.66818466 319.87074753 -106.77222137 319.87330048 -107.90971375 319.87593079 C-109.66662537 319.86809067 -109.66662537 319.86809067 -111.45903015 319.86009216 C-114.00062152 319.84985584 -116.54223384 319.8440724 -119.08384514 319.84221077 C-123.10598906 319.83854995 -127.12788254 319.82218599 -131.14996338 319.80145264 C-141.13937174 319.75233152 -151.12882642 319.72138949 -161.11833191 319.70014954 C-168.88420752 319.68361319 -176.64993586 319.66076612 -184.41571289 319.61712879 C-187.75711687 319.59894832 -191.09813683 319.58855282 -194.43961906 319.58842659 C-198.16681671 319.58823472 -201.89352891 319.56998075 -205.62065125 319.54780579 C-207.27366997 319.55467155 -207.27366997 319.55467155 -208.96008301 319.56167603 C-214.48262542 319.50939586 -218.6079084 319.34923875 -223.32987976 316.14717102 C-227.83194982 311.44046141 -230.00364415 307.89687121 -230.76737976 301.45967102 C-230.34084793 290.9708656 -221.87811307 282.13987512 -215.93144226 274.06513977 C-212.29653892 269.1266917 -208.77209074 264.11604246 -205.26737976 259.08467102 C-204.09170828 257.39969859 -202.91592793 255.71480212 -201.74003601 254.02998352 C-201.16914246 253.2117511 -200.5982489 252.39351868 -200.01005554 251.55049133 C-197.4198221 247.84542623 -194.81372599 244.15164474 -192.20487976 240.45967102 C-191.71753357 239.76994202 -191.23018738 239.08021301 -190.72807312 238.36958313 C-189.75137372 236.98759001 -188.77456758 235.60567233 -187.7976532 234.22383118 C-185.30666992 230.69949589 -182.81839911 227.1732463 -180.32987976 223.64717102 C-177.35461524 219.43140848 -174.37888184 215.21598324 -171.40019226 211.00263977 C-166.02482832 203.39707165 -160.66732962 195.77940297 -155.32987976 188.14717102 C-149.50864293 179.82315283 -143.66133776 171.51798753 -137.7976532 163.22383118 C-135.30666992 159.69949589 -132.81839911 156.1732463 -130.32987976 152.64717102 C-127.35461524 148.43140848 -124.37888184 144.21598324 -121.40019226 140.00263977 C-116.02482777 132.39707086 -110.66747735 124.77930023 -105.32987976 117.14717102 C-96.92552249 105.13389061 -88.50998297 93.13376074 -79.89237976 81.27217102 C-74.86523866 74.34888677 -70.00497101 67.32582713 -65.20072937 60.24653625 C-61.03434642 54.12655626 -56.73083275 48.11910046 -52.35209656 42.14961243 C-49.3037861 37.9678444 -46.37108949 33.73403356 -43.52909851 29.40888977 C-42.55819275 27.94189636 -42.55819275 27.94189636 -41.56767273 26.44526672 C-40.32488104 24.55838555 -39.09502144 22.66289282 -37.88114929 20.75727844 C-31.15318172 10.57524551 -23.07622677 4.46842249 -11.32987976 1.14717102 C-10.77062396 0.97094617 -10.21136816 0.79472132 -9.63516521 0.61315632 C-6.42738674 -0.03525692 -3.25838601 -0.00087016 0 0 Z " fill="#025AEE" transform="translate(842.3298797607422,175.8528289794922)"/>
<path d="M0 0 C1.04431423 -0.00679667 1.04431423 -0.00679667 2.10972571 -0.01373065 C4.43639799 -0.02636378 6.76283585 -0.02475499 9.08953857 -0.02310181 C10.76038412 -0.02908783 12.43122689 -0.03589354 14.10206604 -0.04345703 C18.63736838 -0.06111886 23.17259525 -0.06581255 27.70792866 -0.0670886 C30.54347072 -0.0685109 33.37899364 -0.07278203 36.21453094 -0.07808304 C46.1128206 -0.0965854 56.01105641 -0.10475358 65.90936279 -0.10317993 C75.12579004 -0.10197915 84.34198286 -0.12306844 93.5583508 -0.15466726 C101.47870776 -0.18085171 109.39898826 -0.19154629 117.31938815 -0.19026911 C122.04641635 -0.18976003 126.77323629 -0.19541341 131.50022125 -0.21662521 C135.94905105 -0.23604363 140.39747476 -0.23610755 144.8463192 -0.22159195 C146.47445712 -0.21950707 148.1026207 -0.2241856 149.7307148 -0.23631287 C159.35520996 -0.30333032 167.36124686 -0.0004158 175.30731201 6.04867554 C175.83453857 6.61586304 176.36176514 7.18305054 176.90496826 7.76742554 C177.4502417 8.33461304 177.99551514 8.90180054 178.55731201 9.48617554 C182.98313336 15.07668671 183.08922396 21.29643772 183.12860107 28.21908569 C183.13356598 28.88653305 183.13853088 29.55398041 183.14364624 30.24165344 C183.15814686 32.42994241 183.16504643 34.61815911 183.17059326 36.80648804 C183.17483433 37.93261568 183.17483433 37.93261568 183.17916107 39.08149338 C183.19409805 43.04777117 183.20336446 47.01401305 183.20770264 50.98031616 C183.21320559 55.07379669 183.23728715 59.16694767 183.26567459 63.26032448 C183.28429209 66.41388927 183.2895059 69.56737411 183.29103851 72.72098923 C183.29406329 74.23047072 183.30208596 75.73995086 183.31522369 77.2493782 C183.33228007 79.3580279 183.33040653 81.46586375 183.32391357 83.57455444 C183.32938202 85.37275131 183.32938202 85.37275131 183.33496094 87.20727539 C182.93311235 90.55351079 182.34586684 91.91905879 179.96746826 94.26742554 C177.17638263 95.19778741 175.47592635 95.39631444 172.59124756 95.40927124 C171.70990646 95.41630569 170.82856537 95.42334015 169.92051697 95.43058777 C168.49549614 95.43683418 168.49549614 95.43683418 167.04168701 95.44320679 C165.0280047 95.46640606 163.01433278 95.49052344 161.00067139 95.51547241 C157.82750492 95.55057435 154.65472122 95.57992658 151.48138428 95.59335327 C148.41768096 95.60885181 145.35509436 95.64907424 142.29168701 95.69320679 C140.87577522 95.69034416 140.87577522 95.69034416 139.43125916 95.68742371 C133.83254551 95.79107018 130.21065131 96.25332426 125.96746826 100.26742554 C122.27722861 105.82257833 121.38349037 110.74796654 121.44989014 117.31039429 C121.44288086 118.17653351 121.43587158 119.04267273 121.4286499 119.93505859 C121.41115978 122.77534814 121.4226605 125.61462727 121.43621826 128.45492554 C121.43352076 130.44215077 121.4296362 132.42937472 121.42462158 134.41659546 C121.41873869 138.57240419 121.42725051 142.72786798 121.44598389 146.88363647 C121.46877257 152.19645142 121.45564301 157.50845796 121.43169403 162.82124329 C121.41720338 166.92206861 121.42185703 171.02270394 121.4322052 175.12353516 C121.43486345 177.08184913 121.43163462 179.04018065 121.42228699 180.99847412 C121.41206744 183.74092962 121.42769744 186.48209665 121.44989014 189.22445679 C121.44179321 190.02469269 121.43369629 190.82492859 121.425354 191.64941406 C121.50845191 197.22431927 122.76347217 201.64482602 125.96746826 206.26742554 C131.54115753 210.70532761 136.36885079 210.82054297 143.31903076 210.73617554 C144.78461929 210.74674988 144.78461929 210.74674988 146.27981567 210.75753784 C149.38430287 210.77949543 152.48792647 210.77658206 155.59246826 210.76742554 C159.68928766 210.75538352 163.78482409 210.76905946 167.88153076 210.79867554 C169.28636215 210.78169617 169.28636215 210.78169617 170.71957397 210.76437378 C171.59753632 210.77118164 172.47549866 210.7779895 173.38006592 210.78500366 C174.14726959 210.78182129 174.91447327 210.77863892 175.70492554 210.77536011 C179.15296443 211.52525125 180.62756222 212.60704739 182.96746826 215.26742554 C183.7080119 218.41785321 183.64029399 221.5060879 183.59857178 224.73007202 C183.60930473 226.16730621 183.60930473 226.16730621 183.62025452 227.63357544 C183.63716956 230.8023744 183.61772045 233.96976409 183.59637451 237.13851929 C183.59720302 239.34042986 183.59966169 241.54234038 183.60368347 243.74424744 C183.6065435 248.36031702 183.591821 252.97590195 183.56439209 257.59188843 C183.53032947 263.50820977 183.53631922 269.42366317 183.55505466 275.3400259 C183.56562558 279.88768237 183.55668555 284.43513703 183.54166985 288.98277473 C183.53648693 291.16405704 183.53697115 293.34536041 183.5432148 295.52663994 C183.54866712 298.57668196 183.52828963 301.6254838 183.50091553 304.67538452 C183.51070435 306.02757835 183.51070435 306.02757835 183.52069092 307.40708923 C183.46241758 311.226933 183.17054194 313.8241099 181.56471252 317.3296814 C177.53683072 320.33479126 173.77882698 319.93890616 168.87811279 319.8633728 C167.85328796 319.86743134 166.82846313 319.87148987 165.77258301 319.87567139 C163.54744585 319.88119197 161.32225711 319.8751708 159.09717178 319.8590107 C155.57471331 319.83364769 152.0534284 319.83837088 148.53091431 319.85090637 C141.05130406 319.87168205 133.57205476 319.85195813 126.09246826 319.82992554 C117.43227407 319.80883019 108.77245652 319.80424908 100.11227036 319.83042717 C96.64325416 319.83379013 93.17495529 319.81255529 89.70602417 319.7900238 C87.57588546 319.79253531 85.44574763 319.79609559 83.31561279 319.8008728 C82.35229034 319.78798721 81.3889679 319.77510162 80.39645386 319.76182556 C74.7530651 319.80402007 71.4030781 320.42021851 66.96746826 324.26742554 C64.3964593 328.03823868 63.27579406 331.5394996 63.51043701 336.15414429 C65.31015126 344.47589989 73.5628118 351.59280768 79.01043701 357.84555054 C82.13287179 361.43729311 85.10904516 365.13251867 88.06121826 368.86508179 C90.81353013 372.33367155 93.62817088 375.75016571 96.43621826 379.17367554 C99.35273938 382.73831246 102.25390254 386.31521069 105.15496826 389.89242554 C109.18380434 394.86011743 113.2342924 399.80873114 117.31048584 404.73764038 C122.55575912 411.08026019 127.72899819 417.46438556 132.78436279 423.95932007 C136.43248657 428.6288653 140.18776278 433.20400427 143.96746826 437.76742554 C148.77528613 443.57232854 153.50434033 449.4264997 158.12884521 455.37850952 C160.89447098 458.9316738 163.74705966 462.39105069 166.65496826 465.82992554 C174.78168312 475.77388432 180.21302289 485.99679919 183.96746826 498.26742554 C184.20207764 498.99445679 184.43668701 499.72148804 184.67840576 500.47055054 C188.41874966 513.3720266 187.16186101 528.13017684 187.20574951 541.41976929 C187.20982504 542.47261171 187.21390057 543.52545414 187.21809959 544.61020088 C187.2388458 550.18580036 187.25319524 555.76137609 187.26263428 561.33700562 C187.27366219 567.02821556 187.30805406 572.7190307 187.34780598 578.41010189 C187.37422927 582.84684361 187.38234873 587.28349487 187.38591576 591.7203083 C187.39071719 593.8150047 187.40214069 595.90969891 187.42095375 598.00431633 C187.60512791 619.87165425 184.7389964 639.54851979 174.96746826 659.26742554 C174.41059326 660.39793335 173.85371826 661.52844116 173.27996826 662.69320679 C168.9870924 670.64947431 163.24851919 676.86576359 156.96746826 683.26742554 C155.95233154 684.32316772 155.95233154 684.32316772 154.91668701 685.40023804 C152.34420597 688.03546252 149.85308515 690.35379646 146.90496826 692.57992554 C140.13074277 698.7776212 135.57439621 707.94077908 134.69449234 717.11293983 C134.59556803 720.39234131 134.58805238 723.65971837 134.61444092 726.94052124 C134.61120064 728.80089523 134.61120064 728.80089523 134.6078949 730.69885254 C134.60481732 733.38029303 134.60698277 736.06112609 134.61790848 738.74248695 C134.63438789 742.99341825 134.62574798 747.24407935 134.61306763 751.49501038 C134.58306783 762.8159236 134.58436378 774.13678625 134.60332048 785.45771903 C134.61569812 792.90497621 134.61366897 800.35192354 134.58493268 807.7991454 C134.56980728 812.01351956 134.57701873 816.22704583 134.60164285 820.44136584 C134.61419228 823.69635498 134.59408892 826.95118426 134.57928467 830.20614624 C134.59929283 831.92959007 134.59929283 831.92959007 134.6197052 833.68785095 C134.51680403 843.9189236 131.72990951 852.47295274 124.96746826 860.26742554 C122.81903076 861.99789429 122.81903076 861.99789429 120.59246826 863.45492554 C119.86285889 863.94348022 119.13324951 864.43203491 118.38153076 864.93539429 C111.90784429 868.50744459 105.95757624 868.57436839 98.73651123 868.58969116 C97.61374283 868.59962097 96.49097443 868.60955078 95.33418274 868.61978149 C91.62598194 868.64894916 87.91795235 868.66261716 84.20965576 868.67367554 C81.62380979 868.68518619 79.03796385 868.69670156 76.45211792 868.70822144 C71.72237693 868.72653992 66.99270394 868.73914811 62.26293361 868.74521494 C55.33000754 868.7541597 48.39787339 868.78918886 41.46518791 868.84721613 C35.43595991 868.89590596 29.40710235 868.91111546 23.37765884 868.91456604 C20.82531554 868.92059653 18.27297466 868.9365771 15.72076035 868.9629364 C-11.35999558 869.2226237 -11.35999558 869.2226237 -21.46005249 860.06686401 C-29.16827395 852.44433865 -31.47505278 843.80299495 -31.56427407 833.17650762 C-31.55490941 831.89299581 -31.54554474 830.60948401 -31.5358963 829.2870779 C-31.54007494 827.88310038 -31.54600447 826.47912718 -31.55351377 825.07516351 C-31.56905439 821.22340744 -31.55978944 817.37205376 -31.54640196 813.52030442 C-31.53624122 809.3275431 -31.5493003 805.13484274 -31.55937529 800.94209009 C-31.57381716 793.59582535 -31.57338682 786.2496782 -31.56318665 778.90340805 C-31.54805995 767.97934047 -31.55578995 757.05537214 -31.56801987 746.13130523 C-31.58908863 726.62152746 -31.58725502 707.11180207 -31.57570422 687.60201931 C-31.56564585 670.52941333 -31.5630134 653.45682655 -31.5677948 636.38421822 C-31.56810034 635.25218007 -31.56840588 634.12014192 -31.56872068 632.95379959 C-31.56996601 628.358611 -31.57123961 623.76342241 -31.57255973 619.16823384 C-31.58479812 576.05442692 -31.57369796 532.94065337 -31.55217215 489.8268516 C-31.53318818 451.51267282 -31.53488904 413.19854721 -31.55401611 374.8843689 C-31.57542852 331.84839628 -31.5839315 288.81245316 -31.57156706 245.77647597 C-31.57028417 241.18992301 -31.56903281 236.60337006 -31.5677948 232.01681709 C-31.56747849 230.88747181 -31.56716218 229.75812653 -31.56683629 228.59455866 C-31.56228399 211.53090046 -31.56761194 194.46726357 -31.57771301 177.40360832 C-31.58913914 158.0046884 -31.58631397 138.60582909 -31.56459004 119.20691674 C-31.55282949 108.3464064 -31.55210033 97.48602726 -31.56717473 86.62552027 C-31.57612965 79.37506581 -31.57058859 72.12471677 -31.55315566 64.87427796 C-31.54362215 60.74063999 -31.54042485 56.6072631 -31.55477959 52.47363316 C-31.56770834 48.7123463 -31.56220147 44.95155194 -31.54205695 41.19030092 C-31.53613478 39.20199826 -31.5497939 37.21366661 -31.56427407 35.22540787 C-31.50349036 28.00110634 -30.66861552 22.55928782 -27.03253174 16.26742554 C-26.34610596 15.07053101 -26.34610596 15.07053101 -25.64581299 13.84945679 C-19.27009412 5.17618157 -10.83285226 0.02917002 0 0 Z " fill="#021A51" transform="translate(306.03253173828125,175.73257446289063)"/>
<path d="M0 0 C0.70664313 -0.00170885 1.41328626 -0.0034177 2.14134282 -0.00517833 C4.50287648 -0.00846561 6.86412434 0.00251774 9.22563171 0.01345825 C10.92092889 0.01402253 12.61622655 0.01370548 14.31152344 0.01257324 C18.91029709 0.01199938 23.50896643 0.02375914 28.10771585 0.03772116 C32.91501604 0.05022291 37.72231862 0.05139858 42.52963257 0.05377197 C51.63139272 0.05998837 60.73310482 0.07640137 69.83484381 0.09647095 C80.19751282 0.11882497 90.56018412 0.12982213 100.92287123 0.13986182 C122.23825506 0.16076744 143.55359563 0.19594654 164.86894226 0.24050903 C164.86894226 0.90050903 164.86894226 1.56050903 164.86894226 2.24050903 C165.54956726 2.30238403 166.23019226 2.36425903 166.93144226 2.42800903 C171.9377745 3.81273923 175.37889059 6.16788077 178.42753601 10.40847778 C181.89662646 16.5899449 183.08972214 22.22602795 181.86894226 29.24050903 C179.54420582 36.63061157 175.61291787 41.45979543 168.86894226 45.24050903 C164.74475214 47.22926635 161.38994753 47.49566777 156.8296814 47.50793457 C156.13276635 47.51246568 155.43585129 47.5169968 154.7178176 47.52166522 C152.38881142 47.53429834 150.06003941 47.53268957 147.73100281 47.53103638 C146.05853475 47.53702234 144.38606946 47.54382805 142.71360779 47.5513916 C138.1742405 47.56905262 133.63494862 47.57374705 129.0955503 47.57502317 C126.25800592 47.57644536 123.42048068 47.58071625 120.58294106 47.58601761 C110.67932036 47.60451874 100.77575349 47.61268818 90.87211609 47.6111145 C81.64771657 47.60991332 72.42355112 47.63101094 63.19921082 47.66260183 C55.273774 47.68877483 47.34841357 47.69948136 39.42293388 47.69820368 C34.69202528 47.69769432 29.96132468 47.70336327 25.23045921 47.72455978 C20.77917019 47.74395924 16.3282872 47.74405504 11.87698364 47.72952652 C10.24681313 47.72743938 8.61661709 47.73213367 6.98649025 47.74424744 C-2.47792228 47.81000244 -9.8865123 47.8260054 -17.33808899 41.31082153 C-22.47649191 35.08472748 -25.83767773 30.21560469 -25.53730774 21.89285278 C-24.34084844 14.08135412 -20.11712436 8.58366168 -14.19355774 3.61550903 C-9.51593018 0.49709066 -5.57890047 -0.00813844 0 0 Z " fill="#06B29C" transform="translate(493.1310577392578,934.7594909667969)"/>
<path d="M0 0 C1.69276681 -0.00514464 3.38552825 -0.01243001 5.07827759 -0.02168274 C9.65478552 -0.04013435 14.23070787 -0.02729839 18.80719113 -0.00759244 C23.60673228 0.00884442 28.4062378 -0.00002571 33.20579529 -0.00511169 C41.26310535 -0.00962659 49.3201828 0.0062008 57.37744141 0.03417969 C66.68148163 0.06623971 75.98510269 0.06620964 85.28917271 0.04896492 C94.255604 0.03308091 103.22188219 0.03984475 112.18830681 0.05690193 C115.99715203 0.06375921 119.80587405 0.06275362 123.61471748 0.05535698 C128.10222844 0.0476748 132.58926442 0.05988308 137.07669449 0.08720589 C138.71974847 0.09407016 140.36284697 0.09420875 142.00589943 0.08699036 C151.45645913 0.05026691 158.96729201 0.02429545 166.46655273 6.59594727 C171.58356534 12.77798402 173.67549857 16.94719935 173.47045898 25.07641602 C172.77538465 32.29194962 169.57701612 37.81605135 164.22436523 42.63110352 C156.53060465 47.8926848 147.58210826 47.2043355 138.6640625 47.16455078 C136.9942448 47.17161742 135.3244335 47.18036555 133.65463257 47.19065857 C129.14006944 47.21307893 124.62585811 47.21023012 120.11126065 47.2013371 C116.33402873 47.19621149 112.556862 47.20353251 108.7796368 47.21080917 C99.86491425 47.22778483 90.95036297 47.22426589 82.03564453 47.20751953 C72.85656624 47.19059891 63.67796355 47.20643719 54.49893719 47.23874241 C46.60053997 47.26548141 38.70229041 47.27270274 30.8038525 47.26422733 C26.09415467 47.25931087 21.38474289 47.26144417 16.67508125 47.28201485 C12.2449645 47.30043995 7.81552913 47.29433047 3.38544846 47.26981544 C1.76579944 47.26482919 0.14609788 47.2682402 -1.47350883 47.2809639 C-10.35758625 47.34520171 -18.35338776 47.21794577 -25.77563477 41.63110352 C-31.60644342 35.45639359 -34.27347883 29.71511871 -34.09594727 21.19360352 C-33.58586593 17.11295284 -31.97819721 14.05390091 -29.77563477 10.63110352 C-28.94032227 9.30079102 -28.94032227 9.30079102 -28.08813477 7.94360352 C-19.88440504 -0.26012621 -10.90539471 -0.08436815 0 0 Z " fill="#03B29C" transform="translate(501.775634765625,997.368896484375)"/>
<path d="M0 0 C0.70129632 -0.00679667 1.40259264 -0.01359334 2.12514037 -0.02059597 C4.45717203 -0.03947063 6.78867411 -0.03713757 9.12077332 -0.03465271 C10.80014719 -0.04363637 12.47951489 -0.05384601 14.15887451 -0.06518555 C18.70860643 -0.09162824 23.25816895 -0.09871659 27.80797029 -0.10063291 C30.65392637 -0.10276882 33.4998397 -0.1091801 36.34578514 -0.11712456 C46.28415525 -0.14485925 56.22240485 -0.15713245 66.16081238 -0.1547699 C75.40919303 -0.15296817 84.65704839 -0.18461729 93.90529615 -0.23200089 C101.85884363 -0.27129165 109.81221986 -0.28731891 117.7658636 -0.28540367 C122.51032447 -0.28464058 127.25431826 -0.29308999 131.99868202 -0.32493782 C136.46329805 -0.35409107 140.92700399 -0.35414553 145.39165306 -0.33238792 C147.02421786 -0.32926385 148.65684042 -0.33625926 150.28930664 -0.3544693 C159.64141264 -0.45198235 167.27899776 -0.04440163 174.69572449 6.40113831 C180.13421864 12.35649828 182.03844905 16.99494001 181.90666199 25.03395081 C181.27336012 32.14100512 177.94271559 37.68143065 172.69572449 42.40113831 C165.02670068 47.63699406 156.1708526 46.95415827 147.28727722 46.88697815 C145.63392334 46.88912691 143.98057095 46.89300891 142.32722473 46.89848328 C137.8582044 46.90813594 133.38958664 46.89292487 128.92061496 46.87257719 C124.23319416 46.85494223 119.54578461 46.85853251 114.8583374 46.85929871 C106.98936777 46.8574287 99.12055288 46.84010481 91.25163269 46.8127594 C82.16580898 46.78130093 73.08015453 46.77076379 63.99428028 46.77223051 C54.30260389 46.77358349 44.61099237 46.75969101 34.9193356 46.7413373 C32.13441739 46.73708359 29.34950971 46.73565617 26.56458855 46.73485947 C22.18225967 46.73284396 17.80007174 46.72058052 13.41778946 46.70052719 C11.81343131 46.6947077 10.20905693 46.69222025 8.60468864 46.69338226 C-11.71165313 46.70252542 -11.71165313 46.70252542 -18.76521301 40.11598206 C-23.65522184 34.66746968 -25.71324271 28.90357373 -25.57771301 21.61207581 C-24.73239459 14.77707257 -21.13338127 9.67535085 -16.37849426 4.90895081 C-11.13652771 1.09840638 -6.40555619 0.02578505 0 0 Z " fill="#03B29B" transform="translate(493.3042755126953,872.5988616943359)"/>
<path d="M0 0 C0.84137512 -0.01606293 1.68275024 -0.03212585 2.54962158 -0.04867554 C6.40432922 -0.09318471 10.25886482 -0.13420292 14.11376953 -0.15722656 C16.1448107 -0.17377074 18.17579401 -0.2010404 20.20654297 -0.23925781 C23.13767649 -0.29413008 26.06744488 -0.31591761 28.99902344 -0.33056641 C29.90235413 -0.35323578 30.80568481 -0.37590515 31.73638916 -0.39926147 C35.78813241 -0.38573942 39.06339844 -0.20817624 42.4934082 2.09082031 C45.93055169 6.48309077 45.77077424 9.91039732 45.68261719 15.34912109 C45.68598587 16.32901001 45.68935455 17.30889893 45.69282532 18.31848145 C45.69252687 20.38620259 45.67731557 22.4539683 45.64819336 24.52148438 C45.60852413 27.68285409 45.62748755 30.84002632 45.65332031 34.00146484 C45.64576079 36.01319984 45.63480691 38.02492553 45.62011719 40.03662109 C45.63059334 41.45086365 45.63059334 41.45086365 45.64128113 42.89367676 C45.54227021 47.50525927 45.43443829 49.54056611 42.50219727 53.26513672 C38.02223326 56.61080926 34.36615541 56.38506094 28.93261719 56.43115234 C28.03726761 56.43922409 27.14191803 56.44729584 26.21943665 56.45561218 C24.32217344 56.46945539 22.42488531 56.48017649 20.52758789 56.48803711 C17.6302145 56.50524155 14.73398465 56.54912387 11.83691406 56.59326172 C9.9938235 56.60338942 8.15072323 56.61190528 6.30761719 56.61865234 C5.44287277 56.63616043 4.57812836 56.65366852 3.68717957 56.67170715 C-0.33049781 56.65726768 -2.53054735 56.52193127 -6.04077148 54.41625977 C-9.08146343 51.09950547 -10.322121 48.46293764 -10.36962891 43.96264648 C-10.38876846 42.72599998 -10.38876846 42.72599998 -10.40829468 41.46437073 C-10.41052032 40.58200241 -10.41274597 39.69963409 -10.41503906 38.79052734 C-10.42502426 37.41845375 -10.42502426 37.41845375 -10.43521118 36.0186615 C-10.44532511 34.08627327 -10.45002859 32.15385021 -10.44970703 30.22143555 C-10.45408097 27.26927049 -10.49041548 24.31859995 -10.52832031 21.36669922 C-10.53418862 19.48714703 -10.53815792 17.60758775 -10.54003906 15.72802734 C-10.5544101 14.84768326 -10.56878113 13.96733917 -10.58358765 13.06031799 C-10.55272097 8.90890216 -10.42960144 6.75134263 -8.17529297 3.15942383 C-5.32680888 0.48710385 -3.79588801 0.06584819 0 0 Z " fill="#5098FD" transform="translate(562.0791015625,339.80712890625)"/>
<path d="M0 0 C1.26438904 -0.0029306 1.26438904 -0.0029306 2.55432129 -0.00592041 C4.32946372 -0.00193511 6.10464159 0.01924347 7.87939453 0.05664062 C10.58675584 0.10923912 13.28839589 0.09779946 15.99609375 0.078125 C17.7265927 0.08994042 19.45707123 0.10544223 21.1875 0.125 C21.99078735 0.12115295 22.79407471 0.11730591 23.6217041 0.11334229 C29.42990011 0.28290557 32.03550797 1.68251717 36.09375 5.859375 C37.73283061 9.13753622 37.29971251 12.770194 37.33203125 16.375 C37.340103 17.22358582 37.34817474 18.07217163 37.35649109 18.94647217 C37.37033441 20.74538122 37.38105546 22.54431657 37.38891602 24.34326172 C37.40609614 27.08482228 37.44997484 29.82516656 37.49414062 32.56640625 C37.50427061 34.31509531 37.51278575 36.06379461 37.51953125 37.8125 C37.53703934 38.62833557 37.55454742 39.44417114 37.57258606 40.284729 C37.5524655 45.60722302 36.63896274 48.64059246 33.09375 52.859375 C27.96193884 55.42528058 19.84096833 54.17281412 14.12768555 54.20947266 C12.23530781 54.22602832 10.3429925 54.25331335 8.45092773 54.29150391 C5.72086186 54.34631972 2.9922611 54.36815318 0.26171875 54.3828125 C-0.58115189 54.40548187 -1.42402252 54.42815125 -2.29243469 54.45150757 C-6.68922543 54.43572538 -8.36459907 54.29257275 -11.91674805 51.45166016 C-16.51510614 45.46008251 -15.24682856 37.71465503 -15.3112793 30.43041992 C-15.33282333 28.60014944 -15.36688375 26.76998098 -15.41381836 24.94018555 C-15.48104828 22.29429357 -15.50831656 19.65053357 -15.52734375 17.00390625 C-15.55517441 16.19323196 -15.58300507 15.38255768 -15.61167908 14.5473175 C-15.59279534 9.28053797 -14.50351107 5.96362603 -10.770401 2.15397644 C-7.36103803 -0.21373208 -4.03821388 -0.10277286 0 0 Z " fill="#075CED" transform="translate(554.90625,506.140625)"/>
<path d="M0 0 C1.78854404 -0.01653657 3.57702261 -0.04379646 5.36523438 -0.08203125 C7.94891511 -0.13697269 10.53104709 -0.15870078 13.11523438 -0.17333984 C13.90919617 -0.19600922 14.70315796 -0.21867859 15.5211792 -0.24203491 C19.63905292 -0.22646733 21.74841966 0.2429243 25.4453125 2.27539062 C28.91226357 6.54266797 28.81256802 9.71423837 28.74023438 15.06884766 C28.74597473 16.00434448 28.75171509 16.93984131 28.75762939 17.90368652 C28.76170372 19.87722196 28.75069173 21.8508388 28.72558594 23.82421875 C28.69345418 26.84119621 28.7252913 29.85281761 28.76367188 32.86962891 C28.75970687 34.79021362 28.75201919 36.71079501 28.74023438 38.63134766 C28.75237976 39.53042847 28.76452515 40.42950928 28.77703857 41.35583496 C28.67524867 45.90028259 28.39791867 47.7906195 25.45239258 51.41601562 C21.53181063 54.07492035 17.61229508 54.07202297 13.00195312 54.01416016 C11.73400658 54.0213356 11.73400658 54.0213356 10.44044495 54.02865601 C8.66120533 54.03204505 6.8819026 54.02291239 5.1027832 54.00195312 C2.38481626 53.9751367 -0.3290344 54.00174861 -3.046875 54.03369141 C-4.78060803 54.03038778 -6.51433852 54.02398252 -8.24804688 54.01416016 C-9.05649551 54.02428131 -9.86494415 54.03440247 -10.69789124 54.04483032 C-15.03369348 53.95504078 -16.57922891 53.74617891 -20.04467773 50.87109375 C-20.70862549 50.03916504 -21.37257324 49.20723633 -22.05664062 48.35009766 C-22.38664063 48.02009766 -22.71664062 47.69009766 -23.05664062 47.35009766 C-23.34964186 41.58056951 -23.37075217 35.80848333 -23.40673828 30.03222656 C-23.42328006 28.08451372 -23.45054663 26.13686114 -23.48876953 24.18945312 C-23.54358641 21.38330546 -23.56542145 18.57858393 -23.58007812 15.77197266 C-23.61408218 14.47015045 -23.61408218 14.47015045 -23.64877319 13.14202881 C-23.63322759 8.6843414 -23.51527329 6.92657408 -20.64892578 3.32373047 C-14.71176239 -1.19652088 -7.19733511 0.04877315 0 0 Z " fill="#065BED" transform="translate(545.056640625,245.64990234375)"/>
<path d="M0 0 C1.3366571 -0.01073296 1.3366571 -0.01073296 2.70031738 -0.02168274 C4.57966107 -0.02944854 6.45909519 -0.02447129 8.33837891 -0.00756836 C11.21039231 0.01166279 14.07756842 -0.02774201 16.94921875 -0.07226562 C18.77864871 -0.07255599 20.60808309 -0.06941583 22.4375 -0.0625 C23.72049988 -0.08542366 23.72049988 -0.08542366 25.02941895 -0.10881042 C29.46228917 -0.02236535 31.21856496 0.29142688 34.75732422 3.17651367 C37.47693758 7.1471389 37.44020788 11.14486796 37.3828125 15.82421875 C37.38759613 16.68934082 37.39237976 17.55446289 37.39730835 18.44580078 C37.40069832 20.26792223 37.39155916 22.09010525 37.37060547 23.91210938 C37.34382446 26.69149162 37.3703813 29.46683619 37.40234375 32.24609375 C37.39903949 34.02214428 37.39263291 35.7981923 37.3828125 37.57421875 C37.39293365 38.39937988 37.40305481 39.22454102 37.41348267 40.07470703 C37.33490808 43.96839149 36.99211829 46.95913293 34.75732422 50.22192383 C30.60415713 53.60792627 27.65245575 53.55411434 22.4375 53.4609375 C21.54639526 53.46430618 20.65529053 53.46767487 19.73718262 53.47114563 C17.85776991 53.47084733 15.97830796 53.4556496 14.09912109 53.42651367 C11.22732631 53.38683724 8.36015199 53.40581002 5.48828125 53.43164062 C3.65883631 53.42408102 1.82940159 53.41312705 0 53.3984375 C-1.28299988 53.40891365 -1.28299988 53.40891365 -2.59191895 53.41960144 C-6.68027989 53.32308463 -8.81241201 53.00008722 -12.31982422 50.74926758 C-15.04605751 46.50993069 -15.0023929 43.14641368 -14.9453125 38.19921875 C-14.95009613 37.28591797 -14.95487976 36.37261719 -14.95980835 35.43164062 C-14.96320317 33.50519076 -14.95402994 31.57868296 -14.93310547 29.65234375 C-14.90633281 26.70832527 -14.93286622 23.76811905 -14.96484375 20.82421875 C-14.96153958 18.94921036 -14.95513318 17.07420433 -14.9453125 15.19921875 C-14.95543365 14.32201172 -14.96555481 13.44480469 -14.97598267 12.54101562 C-14.89657434 8.38763049 -14.60889398 6.20871043 -12.31982422 2.64916992 C-8.14257042 -0.0315087 -4.87357301 -0.03979446 0 0 Z " fill="#0459EC" transform="translate(473.28125,307.30078125)"/>
<path d="M0 0 C6.14195488 2.76803769 11.11623333 8.06493825 13.58203125 14.34765625 C14.25134851 21.07559859 14.58655561 27.62690717 10.58203125 33.34765625 C10.02515625 34.21390625 9.46828125 35.08015625 8.89453125 35.97265625 C4.41076009 40.57761041 -1.72452389 43.16504982 -8.10546875 43.59765625 C-15.5389912 43.47490083 -21.17539491 40.59023009 -26.41796875 35.34765625 C-30.63158746 29.35704818 -32.33837164 23.67086186 -31.41796875 16.34765625 C-29.22438354 9.01241907 -23.89678181 4.17043759 -17.55859375 0.17578125 C-12.24081775 -1.88146056 -5.43969995 -1.46757656 0 0 Z " fill="#0768EC" transform="translate(548.41796875,434.65234375)"/>
<path d="M0 0 C4.16177663 3.30883301 5.88758087 6.14813426 6.54296875 11.4375 C6.74287249 16.90153552 6.49253347 21.20592132 3.2109375 25.7578125 C-1.79265069 30.7732295 -5.37988512 32.89771895 -12.6015625 33.0703125 C-17.85696726 33.01959689 -20.81520451 32.43363114 -24.7890625 28.7578125 C-30.03087011 22.93358183 -31.36182428 18.59180489 -31.23828125 10.80859375 C-30.5272999 5.980103 -28.28656214 3.04860412 -24.7890625 -0.2421875 C-16.54440883 -6.32752711 -8.2509873 -5.45834544 0 0 Z " fill="#05B09A" transform="translate(575.7890625,804.2421875)"/>
<path d="M0 0 C5.06726046 1.87554445 8.98983422 5.01663186 11.37109375 9.91796875 C13.15396816 15.82027967 13.04132227 21.88484171 10.125 27.375 C6.78745228 31.94762894 2.36981168 34.40184176 -3 36 C-7.72534447 36.42406938 -11.06146043 35.48731862 -15.25 33.3125 C-22.72650075 27.02544255 -22.72650075 27.02544255 -23.4140625 21.93359375 C-23.59024398 14.89434267 -23.37586507 9.64661114 -18.44140625 4.31640625 C-12.864395 -0.70406334 -7.26275487 -1.28855328 0 0 Z " fill="#065BED" transform="translate(569,604)"/>
<path d="M0 0 C5.89097438 2.72640137 9.55622814 7.094218 12 13 C12.96472231 18.61091366 11.73520328 23.00118021 9 28 C5.47799001 32.06385768 2.60374807 34.68813045 -2.8046875 35.3359375 C-13.30131342 35.46948236 -13.30131342 35.46948236 -18 31 C-21.92615043 27.14713771 -23.33446889 23.9752679 -23.5 18.4375 C-23.21124273 13.01774821 -22.29390119 9.25142154 -18.3125 5.34375 C-12.38866942 0.11103299 -7.99005463 -1.12141118 0 0 Z " fill="#08B09B" transform="translate(569,737)"/>
<path d="M0 0 C4.90713015 2.31973425 7.8111048 5.71776931 11 10 C12.70108067 15.10324201 12.56521247 19.31873434 10.3125 24.1875 C7.83980136 28.6730621 4.94932124 31.02533938 0.375 33.3125 C-5.57576731 34.52469334 -11.56358491 34.34780409 -16.9375 31.375 C-21.93504153 25.62025521 -23.80375081 21.37553117 -23.51953125 13.72265625 C-22.461009 8.17536296 -19.13556135 4.54631783 -14.6640625 1.30859375 C-9.94917708 -1.00736903 -5.1265593 -0.61992361 0 0 Z " fill="#07B19B" transform="translate(569,681)"/>
<path d="M0 0 C0.33 0 0.66 0 1 0 C1.20001827 11.42172035 1.38376047 22.8435745 1.54658794 34.26588917 C1.62270561 39.56943674 1.70447872 44.87277263 1.79907227 50.17602539 C1.89011303 55.29166506 1.96643432 60.40732998 2.03244972 65.52335167 C2.06027253 67.47750763 2.09344538 69.43159482 2.13199425 71.38556862 C2.18498685 74.11749122 2.21914053 76.84903722 2.2487793 79.58129883 C2.27898415 80.79941757 2.27898415 80.79941757 2.30979919 82.04214478 C2.34143021 87.53179634 2.34143021 87.53179634 0.75388336 89.70880127 C-1.45507711 91.33502512 -2.65777438 91.37044577 -5.38493347 91.36076355 C-6.72896996 91.36694954 -6.72896996 91.36694954 -8.10015869 91.3732605 C-9.57074738 91.35708176 -9.57074738 91.35708176 -11.07104492 91.34057617 C-12.62251976 91.34123329 -12.62251976 91.34123329 -14.20533752 91.34190369 C-17.63057203 91.33981051 -21.05531955 91.31645402 -24.48046875 91.29296875 C-26.85272453 91.28737469 -29.22498378 91.2831037 -31.59724426 91.28010559 C-37.84611552 91.26864191 -44.09477816 91.23916143 -50.34356689 91.20599365 C-56.71794818 91.17532569 -63.09236311 91.16160725 -69.46679688 91.14648438 C-81.97795368 91.11429336 -94.48896575 91.06365377 -107 91 C-105.41985869 89.11834346 -104.51290652 88.10108448 -102.06188202 87.61803246 C-100.95466167 87.61306724 -100.95466167 87.61306724 -99.82507324 87.60800171 C-98.55064613 87.59136223 -98.55064613 87.59136223 -97.25047302 87.5743866 C-95.85708458 87.5788958 -95.85708458 87.5788958 -94.43554688 87.58349609 C-93.45481705 87.57491074 -92.47408722 87.56632538 -91.46363831 87.55747986 C-88.21526992 87.53234493 -84.96720688 87.52803411 -81.71875 87.5234375 C-79.46577007 87.5091337 -77.21279892 87.49337782 -74.95983887 87.47622681 C-69.02294665 87.4343037 -63.08610886 87.40935407 -57.14910889 87.38873291 C-47.6453808 87.35296696 -38.14178716 87.29199861 -28.63819885 87.23024368 C-25.31279534 87.21111892 -21.98742768 87.19941235 -18.6619873 87.18881226 C-16.62947512 87.17860212 -14.59696368 87.16824436 -12.56445312 87.15771484 C-11.17106468 87.15615135 -11.17106468 87.15615135 -9.74952698 87.15455627 C-8.89990891 87.14910294 -8.05029083 87.1436496 -7.17492676 87.13803101 C-6.43677986 87.13547491 -5.69863297 87.13291882 -4.93811798 87.13028526 C-2.7812755 87.0670287 -2.7812755 87.0670287 0 86 C0 57.62 0 29.24 0 0 Z " fill="#0C1E52" transform="translate(486,404)"/>
<path d="M0 0 C3.49406769 1.66762322 4.82670681 2.74006022 7 6 C7.54531842 9.06526351 7.54325893 11.93408329 7 15 C4.81840855 17.75569447 3.12822506 19.43588747 0 21 C-3.3125 21.375 -3.3125 21.375 -7 21 C-9.63016161 18.8272578 -11.47336894 17.05326212 -13 14 C-13.17199251 10.19373099 -13.04130648 6.48369158 -10.8046875 3.296875 C-7.33745625 0.13824549 -4.56598006 -0.7771881 0 0 Z " fill="#F0F9F8" transform="translate(651,948)"/>
<path d="M0 0 C2.99559257 1.29011865 3.81502626 2.32340716 6 5 C6.73994373 8.14760681 6.68576465 10.84548261 6 14 C4.20606332 16.87029869 3.01736724 18.49131638 0 20 C-7.75862069 20.43103448 -7.75862069 20.43103448 -11 18 C-13.32637406 15.09203243 -13.97294937 13.21640506 -14.4375 9.5 C-13.92886205 5.4308964 -12.86654931 3.86654931 -10 1 C-6.75514188 -0.62242906 -3.5066405 -0.55197119 0 0 Z " fill="#F3FAF9" transform="translate(652,1011)"/>
<path d="M0 0 C2.77428577 1.26103899 4.48317435 2.31089914 6.3125 4.75 C7.31199111 8.0210618 7.3581657 10.59742588 7 14 C5.20437595 16.75329021 3.94745078 18.52627461 1 20 C-6.13230769 20.70153846 -6.13230769 20.70153846 -9.9375 17.625 C-12.90672736 13.84598336 -13.55686828 11.82619179 -13 7 C-9.55818378 1.43915514 -6.51289739 -0.51081548 0 0 Z " fill="#F4FAF9" transform="translate(651,886)"/>
<path d="M0 0 C0.33 0 0.66 0 1 0 C0.98428955 1.25135742 0.9685791 2.50271484 0.95239258 3.79199219 C0.89807895 8.4361324 0.86364461 13.08024455 0.83520508 17.72460938 C0.82012174 19.73442303 0.79965228 21.74420379 0.77368164 23.75390625 C0.73727856 26.64331176 0.72026912 29.53228196 0.70703125 32.421875 C0.69154739 33.31992859 0.67606354 34.21798218 0.66011047 35.14324951 C0.64824498 41.14119246 0.64824498 41.14119246 4 46 C4 46.66 4 47.32 4 48 C0.125 46.25 0.125 46.25 -1 44 C-1.09395003 42.65232166 -1.12793351 41.30016708 -1.12939453 39.94921875 C-1.13254669 39.11495361 -1.13569885 38.28068848 -1.13894653 37.42114258 C-1.13591019 36.0679895 -1.13591019 36.0679895 -1.1328125 34.6875 C-1.13424759 33.30050903 -1.13424759 33.30050903 -1.13571167 31.88549805 C-1.13639283 29.92854749 -1.134543 27.97159467 -1.13037109 26.01464844 C-1.12502195 23.01231836 -1.13031825 20.0101379 -1.13671875 17.0078125 C-1.13605796 15.10937467 -1.13477677 13.21093693 -1.1328125 11.3125 C-1.13483673 10.41039795 -1.13686096 9.5082959 -1.13894653 8.57885742 C-1.13579437 7.74459229 -1.13264221 6.91032715 -1.12939453 6.05078125 C-1.12859894 5.31512939 -1.12780334 4.57947754 -1.12698364 3.8215332 C-1 2 -1 2 0 0 Z " fill="#175DEE" transform="translate(460,311)"/>
<path d="M0 0 C-0.33 0.99 -0.66 1.98 -1 3 C-16.84 3 -32.68 3 -49 3 C-46.58597135 0.58597135 -45.97771555 0.73694814 -42.67382812 0.68115234 C-41.77950073 0.66128265 -40.88517334 0.64141296 -39.96374512 0.62094116 C-38.99602173 0.60938995 -38.02829834 0.59783875 -37.03125 0.5859375 C-36.04000122 0.56657135 -35.04875244 0.5472052 -34.02746582 0.5272522 C-30.85173218 0.46735333 -27.67596175 0.42104929 -24.5 0.375 C-22.3580569 0.33682612 -20.21612924 0.29777474 -18.07421875 0.2578125 C-3.91807005 0 -3.91807005 0 0 0 Z " fill="#C7CCDB" transform="translate(485,270)"/>
<path d="M0 0 C0.99 0 1.98 0 3 0 C4.53393555 1.65234375 4.53393555 1.65234375 6.13671875 3.9375 C7.00200195 5.15566406 7.00200195 5.15566406 7.88476562 6.3984375 C8.47966797 7.25695312 9.07457031 8.11546875 9.6875 9 C10.29400391 9.85851562 10.90050781 10.71703125 11.52539062 11.6015625 C13.02591723 13.72829312 14.51687502 15.86111446 16 18 C15.34 18.66 14.68 19.32 14 20 C11.66283697 16.85699524 9.33091751 13.71013861 7 10.5625 C6.33226562 9.66466797 5.66453125 8.76683594 4.9765625 7.84179688 C4.34492187 6.98779297 3.71328125 6.13378906 3.0625 5.25390625 C2.47597656 4.46314697 1.88945313 3.6723877 1.28515625 2.85766602 C0 1 0 1 0 0 Z " fill="#1361F1" transform="translate(770,942)"/>
<path d="M0 0 C1 2 1 2 0.125 5.125 C-2.1688329 10.28884185 -6.69685202 13.52680928 -11 17 C-11.66 16.67 -12.32 16.34 -13 16 C-12.34644531 15.27296875 -12.34644531 15.27296875 -11.6796875 14.53125 C-7.52853243 9.85895425 -3.67172504 5.0570279 0 0 Z " fill="#1F6AF3" transform="translate(723,557)"/>
<path d="M0 0 C0.99 0.66 1.98 1.32 3 2 C0.36 4.97 -2.28 7.94 -5 11 C-5.66 10.34 -6.32 9.68 -7 9 C-6.02180976 7.68677212 -5.0424189 6.37443848 -4.0625 5.0625 C-3.51722656 4.33160156 -2.97195313 3.60070312 -2.41015625 2.84765625 C-1 1 -1 1 0 0 Z " fill="#1868F1" transform="translate(813,186)"/>
<path d="M0 0 C1.21597114 3.64791341 0.33183805 4.67699678 -1.23046875 8.015625 C-2.4986432 11.28584134 -2.69464417 14.51894359 -3 18 C-3.66 18 -4.32 18 -5 18 C-5.67090715 10.75420281 -3.58125682 6.24161903 0 0 Z " fill="#276EF0" transform="translate(617,463)"/>
<path d="M0 0 C4.34586828 -0.39507893 6.32003497 -0.45331002 10 2 C6.00439392 4.83022097 2.57262677 3.76210446 -2 3 C-1.34 2.01 -0.68 1.02 0 0 Z " fill="#0CA592" transform="translate(560,711)"/>
<path d="M0 0 C0.33 1.32 0.66 2.64 1 4 C-0.65234375 6.359375 -0.65234375 6.359375 -2.9375 8.75 C-4.06478516 9.94882812 -4.06478516 9.94882812 -5.21484375 11.171875 C-5.80394531 11.77515625 -6.39304687 12.3784375 -7 13 C-7.66 12.34 -8.32 11.68 -9 11 C-6.03 7.37 -3.06 3.74 0 0 Z " fill="#1B67F3" transform="translate(751,523)"/>
<path d="M0 0 C4.21073233 1.50383297 5.83237117 4.20664956 8 8 C8 8.99 8 9.98 8 11 C7.01 11 6.02 11 5 11 C4.35165346 9.730447 3.70642185 8.45930294 3.0625 7.1875 C2.70285156 6.47980469 2.34320313 5.77210938 1.97265625 5.04296875 C1 3 1 3 0 0 Z " fill="#19275B" transform="translate(480,183)"/>
<path d="M0 0 C-1.11666174 3.34998521 -1.74694925 3.79340222 -4.5625 5.6875 C-5.20316406 6.12449219 -5.84382812 6.56148437 -6.50390625 7.01171875 C-6.99761719 7.33785156 -7.49132812 7.66398438 -8 8 C-8.66 7.34 -9.32 6.68 -10 6 C-8.71283353 4.99421411 -7.42011342 3.99553202 -6.125 3 C-5.40570312 2.443125 -4.68640625 1.88625 -3.9453125 1.3125 C-2 0 -2 0 0 0 Z " fill="#1A66EF" transform="translate(559,604)"/>
<path d="M0 0 C1.46726798 3.81489674 0.43336419 6.29011622 -1 10 C-1.99 10 -2.98 10 -4 10 C-3.5205537 5.78087253 -2.83374881 3.20336822 0 0 Z " fill="#2ABFAB" transform="translate(549,806)"/>
<path d="M0 0 C0.33 0 0.66 0 1 0 C2.27170568 6.474138 1.68902652 9.97658059 -1 16 C-2.26823485 12.34606463 -1.75715321 9.50929974 -1.0625 5.75 C-0.86785156 4.67234375 -0.67320312 3.5946875 -0.47265625 2.484375 C-0.31667969 1.66453125 -0.16070312 0.8446875 0 0 Z " fill="#C5CAD9" transform="translate(492,794)"/>
<path d="M0 0 C0.33 1.32 0.66 2.64 1 4 C-0.21484375 5.921875 -0.21484375 5.921875 -1.9375 7.75 C-2.50339844 8.36359375 -3.06929687 8.9771875 -3.65234375 9.609375 C-4.31943359 10.29773438 -4.31943359 10.29773438 -5 11 C-5.66 10.67 -6.32 10.34 -7 10 C-3.535 5.05 -3.535 5.05 0 0 Z " fill="#1A67F2" transform="translate(637,435)"/>
<path d="M0 0 C0.66 0.66 1.32 1.32 2 2 C0.88200014 3.33920838 -0.24461897 4.67122556 -1.375 6 C-2.00148438 6.7425 -2.62796875 7.485 -3.2734375 8.25 C-3.84320312 8.8275 -4.41296875 9.405 -5 10 C-5.66 10 -6.32 10 -7 10 C-5.33248852 6.05860922 -2.77289351 3.2107188 0 0 Z " fill="#1F6BF1" transform="translate(679,612)"/>
<path d="M0 0 C0.33 0 0.66 0 1 0 C2.14507772 5.19689119 2.14507772 5.19689119 2 8 C-0.4375 11 -0.4375 11 -3 13 C-3.99 12.67 -4.98 12.34 -6 12 C-5.195625 11.319375 -4.39125 10.63875 -3.5625 9.9375 C-0.57711289 6.51522698 -0.26218749 4.4571874 0 0 Z " fill="#25C2AD" transform="translate(658,1018)"/>
<path d="M0 0 C0.66 0 1.32 0 2 0 C1.45276317 3.37462715 0.9451 5.08235 -1 8 C-1.99 8 -2.98 8 -4 8 C-4 7.34 -4 6.68 -4 6 C-3.34 6 -2.68 6 -2 6 C-1.7834375 5.071875 -1.7834375 5.071875 -1.5625 4.125 C-1 2 -1 2 0 0 Z " fill="#081847" transform="translate(480,830)"/>
<path d="M0 0 C4.20626034 1.50223584 5.73900021 4.28550034 8 8 C7.01 8 6.02 8 5 8 C0 2.65116279 0 2.65116279 0 0 Z " fill="#1864F4" transform="translate(884,760)"/>
<path d="M0 0 C0.66 0.33 1.32 0.66 2 1 C1.01 2.485 1.01 2.485 0 4 C-0.66 4 -1.32 4 -2 4 C-1.67 5.32 -1.34 6.64 -1 8 C-1.99 8 -2.98 8 -4 8 C-3.50168276 4.31245243 -2.89932357 2.39509338 0 0 Z " fill="#1966F0" transform="translate(545,508)"/>
<path d="M0 0 C1.21386936 3.64160808 0.6674695 4.33165469 -0.9375 7.6875 C-1.31777344 8.49574219 -1.69804688 9.30398438 -2.08984375 10.13671875 C-2.39019531 10.75160156 -2.69054687 11.36648438 -3 12 C-3.66 12 -4.32 12 -5 12 C-3.68938409 7.76570244 -2.05643741 3.92592596 0 0 Z " fill="#1462F2" transform="translate(645,655)"/>
<path d="M0 0 C0.99 0.33 1.98 0.66 3 1 C2.319375 1.556875 2.319375 1.556875 1.625 2.125 C-0.47029394 4.54264685 -1.12013285 6.95430602 -2 10 C-2.33 10 -2.66 10 -3 10 C-3.36923077 4.58461538 -3.36923077 4.58461538 -1.5 1.625 C-1.005 1.08875 -0.51 0.5525 0 0 Z " fill="#DBF3EF" transform="translate(641,889)"/>
<path d="M0 0 C0.33 0 0.66 0 1 0 C1 1.98 1 3.96 1 6 C-0.98 6.99 -0.98 6.99 -3 8 C-3.33 7.34 -3.66 6.68 -4 6 C-2.69593116 3.98079663 -1.36176581 1.98075027 0 0 Z " fill="#1E69F1" transform="translate(756,266)"/>
<path d="M0 0 C1.98 0.99 1.98 0.99 4 2 C4 2.66 4 3.32 4 4 C4.66 4 5.32 4 6 4 C6.33 4.99 6.66 5.98 7 7 C4.50638429 5.79618552 2.31856917 4.54571278 0 3 C0 2.01 0 1.02 0 0 Z " fill="#25B6A0" transform="translate(550,707)"/>
<path d="M0 0 C4.5 2.25 4.5 2.25 6 6 C5.01 7.485 5.01 7.485 4 9 C2.68 6.03 1.36 3.06 0 0 Z " fill="#226BF4" transform="translate(503,308)"/>
<path d="M0 0 C2.625 -0.1875 2.625 -0.1875 5 0 C5 0.99 5 1.98 5 3 C2.69 3 0.38 3 -2 3 C-1.34 2.01 -0.68 1.02 0 0 Z " fill="#04A58F" transform="translate(649,978)"/>
<path d="M0 0 C4.875 3.625 4.875 3.625 6 7 C5.01 7 4.02 7 3 7 C0.64276511 4.46815512 0 3.52809907 0 0 Z " fill="#1561EF" transform="translate(737,896)"/>
<path d="M0 0 C0 3 0 3 -1.5 4.6875 C-1.995 5.120625 -2.49 5.55375 -3 6 C-3.99 5.67 -4.98 5.34 -6 5 C-2.25 1.125 -2.25 1.125 0 0 Z " fill="#051542" transform="translate(466,853)"/>
<path d="M0 0 C2.5 2.3125 2.5 2.3125 5 5 C5 5.99 5 6.98 5 8 C2.5 5.6875 2.5 5.6875 0 3 C0 2.01 0 1.02 0 0 Z " fill="#1769F3" transform="translate(1067,1000)"/>
<path d="M0 0 C4.29 0 8.58 0 13 0 C12.67 0.99 12.34 1.98 12 3 C11.34 2.67 10.68 2.34 10 2 C8.29636178 1.77377919 6.58671299 1.59111527 4.875 1.4375 C3.96492187 1.35371094 3.05484375 1.26992188 2.1171875 1.18359375 C1.41851563 1.12300781 0.71984375 1.06242188 0 1 C0 0.67 0 0.34 0 0 Z " fill="#04A992" transform="translate(645,936)"/>
<path d="M0 0 C0.66 0.99 1.32 1.98 2 3 C1.01 4.32 0.02 5.64 -1 7 C-1.99 6.67 -2.98 6.34 -4 6 C-2.68 4.02 -1.36 2.04 0 0 Z " fill="#1665F3" transform="translate(770,246)"/>
</svg>
