<?xml version="1.0" encoding="UTF-8"?>
<svg version="1.1" xmlns="http://www.w3.org/2000/svg" width="1254" height="1254">
<path d="M0 0 C413.82 0 827.64 0 1254 0 C1254 413.82 1254 827.64 1254 1254 C840.18 1254 426.36 1254 0 1254 C0 840.18 0 426.36 0 0 Z " fill="#000F36" transform="translate(0,0)"/>
<path d="M0 0 C1.78172839 -0.0035067 3.56345362 -0.00917144 5.34516907 -0.01681519 C10.15502941 -0.03099085 14.96431311 -0.01407467 19.77411819 0.00946999 C24.82054474 0.02966312 29.86694933 0.0236952 34.91340637 0.0213623 C43.38247116 0.02141577 51.85131205 0.04111266 60.3203125 0.07324219 C70.10035723 0.11016602 79.88010926 0.11891167 89.6602146 0.11194468 C99.08795748 0.10563284 108.51560043 0.11640429 117.94332314 0.13591003 C121.9475173 0.14406724 125.95166027 0.1467967 129.95586205 0.1452179 C134.67150651 0.14433691 139.38687419 0.15861261 144.1024456 0.18444443 C145.82935494 0.19158598 147.55629376 0.19369957 149.28321457 0.19032669 C151.64700771 0.1865915 154.01000207 0.20142883 156.373703 0.2208252 C157.38972281 0.21283331 157.38972281 0.21283331 158.42626828 0.20467997 C166.36953849 0.31653939 172.56477024 3.00886204 178.17114258 8.61523438 C182.19427136 13.80295307 182.88339733 18.05409258 182.59301758 24.59570312 C180.96366717 36.25762778 171.01542653 46.4486087 164.17114258 55.61523438 C163.64504395 56.3205127 163.11894531 57.02579102 162.5769043 57.75244141 C160.07949474 61.09529919 157.57299588 64.43118732 155.06176758 67.76367188 C151.35334654 72.69255458 147.71460054 77.67172425 144.07348633 82.65039062 C140.25566275 87.87041106 136.41626737 93.07451726 132.57836914 98.27978516 C129.57963215 102.34693443 126.58224113 106.4150499 123.58911133 110.48632812 C116.17211283 120.57177384 108.69798831 130.61157664 101.17114258 140.61523438 C98.71153991 143.88511551 96.2531579 147.1559086 93.79614258 150.42773438 C92.85230713 151.68457031 92.85230713 151.68457031 91.8894043 152.96679688 C87.51230347 158.80442355 83.17657415 164.67125084 78.85864258 170.55273438 C75.0172661 175.78466157 71.14710619 180.98474951 67.17114258 186.11523438 C61.30711186 193.68481652 55.65819064 201.41044308 49.99438477 209.13037109 C40.30970752 222.32943978 30.55682223 235.4736185 20.7121582 248.55371094 C14.90496275 256.27208621 9.13504914 264.01498654 3.42114258 271.80273438 C-1.66818422 278.73820345 -6.84771086 285.59869465 -12.07885742 292.42773438 C-16.9669788 298.80922268 -21.76316933 305.23245164 -26.39331055 311.80322266 C-29.42146631 316.08717242 -32.59062737 320.24519951 -35.81005859 324.38647461 C-40.07075935 329.88623585 -44.18057795 335.49392081 -48.2956543 341.10302734 C-52.04976948 346.2148201 -55.8354266 351.30101084 -59.65087891 356.3671875 C-62.15099204 359.68758594 -64.6424183 363.01441518 -67.13061523 366.34375 C-68.21131712 367.78924315 -69.29380374 369.23340497 -70.37866211 370.67578125 C-80.68483894 384.4220022 -86.29097541 396.23320708 -84.82885742 413.61523438 C-83.27644134 422.04969881 -79.44495306 428.33617526 -74.15112305 434.95996094 C-72.0694719 437.56586839 -70.0275895 440.20259804 -67.97924805 442.8347168 C-66.78186774 444.37277089 -65.58260548 445.90936149 -64.3815918 447.44458008 C-60.14524412 452.87254033 -56.01955862 458.37106368 -51.95385742 463.92773438 C-47.0043868 470.69208053 -41.98225317 477.3941328 -36.89135742 484.05273438 C-26.03679237 498.25390569 -15.32518363 512.55572058 -4.74633789 526.96337891 C-0.71667257 532.44047161 3.40335685 537.83496353 7.56958008 543.20898438 C10.71229832 547.29476304 13.74920111 551.45785201 16.79614258 555.61523438 C21.84789421 562.50600085 26.97780026 569.33058586 32.17114258 576.11523438 C40.2125214 586.62657561 48.06174859 597.27154773 55.88012695 607.94921875 C63.23837123 617.99234121 70.69492736 627.94840748 78.2668457 637.83154297 C83.18054193 644.26495137 87.94904884 650.79016028 92.66186523 657.37158203 C96.50613606 662.72913791 100.48163514 667.95786373 104.52661133 673.16601562 C109.58566823 679.72160492 114.43678589 686.43665742 119.3347168 693.11279297 C122.38006765 697.2625997 125.43133669 701.40804171 128.48364258 705.55273438 C129.36765747 706.75361694 129.36765747 706.75361694 130.26953125 707.97875977 C133.40162189 712.22929632 136.55274373 716.46362386 139.73364258 720.67773438 C143.90976082 726.22534533 147.96728971 731.85467647 152.02294922 737.49047852 C156.03530454 743.05981538 160.09120649 748.59525419 164.17114258 754.11523438 C170.36149187 762.49454046 176.47588811 770.92631141 182.56225586 779.38134766 C184.72005576 782.37738242 186.88196899 785.37043588 189.04418945 788.36328125 C190.66901354 790.61228746 192.29312513 792.86180708 193.91723633 795.11132812 C196.09443281 798.12615956 198.27437175 801.13898132 200.45629883 804.15039062 C203.70274222 808.63281655 206.94116335 813.12092964 210.17114258 817.61523438 C210.73881348 818.40510742 211.30648438 819.19498047 211.89135742 820.00878906 C213.5726838 822.35343455 215.24793884 824.7022875 216.92114258 827.05273438 C217.43491455 827.76888916 217.94868652 828.48504395 218.47802734 829.22290039 C218.94909912 829.88733154 219.4201709 830.5517627 219.90551758 831.23632812 C220.32027344 831.81825928 220.7350293 832.40019043 221.16235352 832.99975586 C224.67218202 838.62040814 223.63019859 846.24832711 223.17114258 852.61523438 C221.58134383 859.14657318 216.7946741 864.12811514 211.17114258 867.61523438 C205.23273021 870.08628007 199.88471628 871.05397849 193.48744202 871.00291443 C192.66193027 871.00829997 191.83641853 871.0136855 190.98589128 871.01923424 C188.24548395 871.03343516 185.50556506 871.02642974 182.76513672 871.01928711 C180.78990799 871.02499478 178.81468255 871.03196057 176.83946228 871.04008484 C171.49233909 871.05798698 166.14538026 871.05685343 160.79823613 871.05114245 C156.32760965 871.0480465 151.85701455 871.05414756 147.38639253 871.0601812 C136.83683265 871.07421502 126.28735377 871.0726745 115.73779297 871.0612793 C104.86831864 871.04979771 93.99909104 871.06387714 83.12964922 871.09067577 C73.783299 871.11285316 64.43702611 871.11946558 55.09065145 871.11359936 C49.51468491 871.11023366 43.93887653 871.1126193 38.36293221 871.12985039 C33.11871864 871.14534998 27.87486986 871.14133038 22.63067055 871.12254524 C20.71108315 871.1188678 18.79146855 871.12194307 16.87190628 871.13243103 C4.25845621 871.19606244 -7.0832623 870.6958149 -16.82885742 861.61523438 C-19.11300622 858.97462849 -21.10225257 856.17813097 -23.07885742 853.30273438 C-23.63677979 852.51092773 -24.19470215 851.71912109 -24.76953125 850.90332031 C-26.46941165 848.48298797 -28.15168949 846.05134701 -29.82885742 843.61523438 C-30.32498535 842.8973877 -30.82111328 842.17954102 -31.33227539 841.43994141 C-33.64001136 838.098491 -35.93679353 834.74976512 -38.22729492 831.39648438 C-41.04438803 827.28448762 -43.94049596 823.23206888 -46.84912109 819.18457031 C-50.55146639 814.02429541 -54.19259303 808.82222459 -57.82885742 803.61523438 C-62.23561237 797.30697087 -66.66342934 791.0159003 -71.14794922 784.76269531 C-74.33672538 780.31384348 -77.49126999 775.84154023 -80.64135742 771.36523438 C-85.36682365 764.65446357 -90.15684788 757.99282425 -94.97265625 751.34667969 C-98.62835777 746.29508558 -102.24215935 741.21601367 -105.82885742 736.11523438 C-110.53712298 729.42040159 -115.30801541 722.77329733 -120.10742188 716.14355469 C-124.64049465 709.88135763 -129.14060769 703.59633142 -133.62719727 697.30078125 C-135.27387194 694.99102059 -136.92277058 692.68285192 -138.57177734 690.37475586 C-139.82698767 688.61785145 -141.08182916 686.86068399 -142.33666992 685.10351562 C-143.97600468 682.80831898 -145.61671021 680.51411204 -147.25854492 678.22070312 C-151.74391309 671.95251574 -156.20456346 665.66790896 -160.64135742 659.36523438 C-164.82919651 653.41817897 -169.06148382 647.50545682 -173.32885742 641.61523438 C-178.05505615 635.09035294 -182.74610778 628.5426809 -187.36865234 621.94384766 C-189.87551647 618.36664171 -192.4079146 614.81436539 -195.00073242 611.29882812 C-214.68227383 584.45014312 -220.69638919 552.7980698 -216.18041992 519.88476562 C-212.34089414 498.01501949 -201.2314366 479.09163301 -187.19946289 462.26513672 C-185.39696042 460.09532701 -183.64306385 457.88866194 -181.89135742 455.67773438 C-179.54407789 452.73997496 -177.18016532 449.81666261 -174.80151367 446.90429688 C-168.85911984 439.62633619 -162.99856992 432.30652169 -157.29760742 424.83789062 C-149.3145557 414.38588702 -141.11642399 404.08633073 -132.79760742 393.90039062 C-127.66598957 387.61364613 -122.5550479 381.32451814 -117.64135742 374.86523438 C-113.6329878 369.60952769 -109.47082266 364.53086753 -105.21948242 359.47070312 C-102.26780711 355.94509094 -99.35590771 352.39427442 -96.52416992 348.77148438 C-95.17452752 347.05488851 -93.76170834 345.38801294 -92.32885742 343.74023438 C-89.96027323 338.80568398 -90.09013951 333.98224614 -90.82885742 328.61523438 C-93.20865419 324.13023278 -96.16486708 322.44047532 -100.82885742 320.61523438 C-104.72724087 320.18150606 -108.60321529 320.21884726 -112.5222168 320.24633789 C-113.69363724 320.24257141 -114.86505768 320.23880493 -116.07197571 320.23492432 C-118.61082662 320.22849732 -121.1497016 320.22881671 -123.68855286 320.23510933 C-127.70664583 320.24421779 -131.72426278 320.2344975 -135.74230957 320.2184906 C-145.72005509 320.18236577 -155.69779313 320.17606603 -165.67559814 320.17858887 C-173.43561941 320.18030138 -181.1954054 320.17314862 -188.95536089 320.1386103 C-193.58862404 320.11914972 -198.22130838 320.12929087 -202.85461426 320.14393616 C-205.28158036 320.13503316 -207.70854255 320.12495927 -210.13549805 320.11352539 C-211.23593948 320.12326889 -212.33638092 320.13301239 -213.47016907 320.14305115 C-219.57987604 320.08555357 -223.17430393 319.69443034 -227.82885742 315.61523438 C-231.36079463 311.85331056 -233.16187653 307.89856351 -233.45385742 302.74023438 C-232.92741623 293.66605061 -227.38066778 286.72795715 -222.11010742 279.69726562 C-219.55530316 276.24565507 -217.12356822 272.7246016 -214.70385742 269.17773438 C-210.45307661 262.96113601 -206.15491665 256.77967746 -201.82885742 250.61523438 C-196.62213065 243.1926232 -191.45937093 235.74178638 -186.33276367 228.26367188 C-184.05106293 224.93550297 -181.75442861 221.61789503 -179.45385742 218.30273438 C-175.86837392 213.13075375 -172.31438095 207.93796561 -168.76635742 202.74023438 C-163.1510062 194.51686447 -157.47110562 186.33967484 -151.77636719 178.17114258 C-147.55476398 172.11066599 -143.36427003 166.03035434 -139.20385742 159.92773438 C-134.21214275 152.60655286 -129.14664814 145.33993634 -124.05444336 138.08837891 C-120.14861866 132.51928243 -116.28589575 126.92282082 -112.45385742 121.30273438 C-105.66011745 111.34121445 -98.77219027 101.44629389 -91.87719727 91.5546875 C-88.52467396 86.7436767 -85.17694099 81.92933542 -81.82885742 77.11523438 C-77.77175973 71.2821601 -73.71388454 65.44963244 -69.65307617 59.61914062 C-68.27408885 57.63872833 -66.89518172 55.65826018 -65.51635742 53.67773438 C-64.84781738 52.71746338 -64.17927734 51.75719238 -63.49047852 50.76782227 C-60.08169125 45.86753217 -56.68453863 40.95981868 -53.31176758 36.03466797 C-51.57635335 33.50174946 -49.83339776 30.97407993 -48.08911133 28.44726562 C-47.23096183 27.1997736 -46.3766129 25.94966057 -45.52563477 24.69726562 C-33.19334487 6.56884544 -22.10432325 -0.18399932 0 0 Z " fill="#025AF2" transform="translate(846.828857421875,170.384765625)"/>
<path d="M0 0 C0.6831044 -0.00367669 1.36620881 -0.00735338 2.07001334 -0.01114148 C4.35827278 -0.02215165 6.64648675 -0.02601762 8.93476868 -0.02983093 C10.57590885 -0.03609762 12.2170476 -0.04274461 13.85818481 -0.04974365 C19.24739091 -0.07076285 24.63659722 -0.08114437 30.02583313 -0.09111023 C31.8829735 -0.09515865 33.74011373 -0.0992756 35.5972538 -0.10346031 C44.32337155 -0.12250766 53.04948086 -0.13673938 61.77561539 -0.14507228 C71.83938477 -0.15484189 81.90293404 -0.18115611 91.96662587 -0.22157317 C99.75107338 -0.25176073 107.5354579 -0.26654368 115.3199628 -0.26985329 C119.96653789 -0.27220085 124.61287772 -0.28112292 129.25938988 -0.30631447 C133.63349973 -0.32964632 138.00722024 -0.33380797 142.38137627 -0.32355309 C143.98210701 -0.32305885 145.58285725 -0.32934614 147.1835289 -0.34310913 C157.22356226 -0.4245693 164.43997037 0.56214808 173.01411438 5.89717102 C178.4604747 11.49914164 180.31792819 18.28424 180.37861633 25.92597961 C180.38518753 26.61088974 180.39175873 27.29579987 180.39852905 28.00146484 C180.41822678 30.26618056 180.42991564 32.53083013 180.43989563 34.79560852 C180.44397116 35.56992847 180.44804668 36.34424843 180.45224571 37.14203262 C180.47308969 41.2391203 180.48739959 45.33617463 180.4967804 49.43330383 C180.50785187 53.66250592 180.5422645 57.89118288 180.5819521 62.1201992 C180.60810442 65.37503534 180.61647088 68.62974593 180.62006187 71.88467789 C180.6249301 73.44359007 180.63655091 75.00249657 180.65509987 76.561306 C180.67946734 78.74448513 180.67853183 80.92629968 180.67158508 83.10957336 C180.67745132 84.35072906 180.68331757 85.59188477 180.68936157 86.87065125 C180.10928167 90.76743077 178.98731218 92.40726632 176.20161438 95.14717102 C173.38230642 96.08694034 171.66636069 96.27143583 168.74946594 96.27314758 C167.40226471 96.27885773 167.40226471 96.27885773 166.02784729 96.28468323 C165.05909668 96.28571045 164.09034607 96.28673767 163.09223938 96.28779602 C161.03754082 96.3061264 158.98285301 96.32569692 156.92817688 96.34638977 C153.69133888 96.37533391 150.45519169 96.39717048 147.21821594 96.3976593 C144.0922681 96.40100205 140.96791025 96.43560357 137.84223938 96.47529602 C136.88158569 96.46822632 135.92093201 96.46115662 134.9311676 96.45387268 C129.5916277 96.55011359 126.00275301 97.23385631 121.65174866 100.39344788 C117.208347 105.76708565 116.75972895 111.30785527 116.79756165 117.9848175 C116.79069839 118.84105713 116.78383514 119.69729675 116.77676392 120.57948303 C116.75855463 123.39258191 116.76232498 126.20511995 116.76802063 129.01826477 C116.76345604 130.9844989 116.75814964 132.95073144 116.75213623 134.91696167 C116.74321667 139.03160598 116.74561516 143.14605608 116.75556946 147.26069641 C116.76705801 152.52082682 116.74684334 157.78028579 116.71765232 163.04032803 C116.6992635 167.09910302 116.69958813 171.15771791 116.70528984 175.21652412 C116.70544272 177.15530909 116.69942574 179.09410513 116.68699837 181.03285027 C116.67203925 183.74903273 116.68280117 186.46398475 116.6999054 189.18013 C116.69023743 189.97258621 116.68056946 190.76504242 116.67060852 191.58151245 C116.75954577 198.36196478 118.92031355 203.44803585 123.29170227 208.62007141 C127.71665154 210.94225093 131.83775895 210.65312519 136.76020813 210.58076477 C138.85851616 210.59036997 140.95682344 210.60014069 143.05513 210.61006165 C146.35119605 210.60146086 149.64706737 210.58461754 152.94306946 210.56245422 C156.13250286 210.54792106 159.32081441 210.56319551 162.51020813 210.58076477 C163.98233009 210.55604347 163.98233009 210.55604347 165.48419189 210.53082275 C166.40857559 210.53755508 167.33295929 210.54428741 168.28535461 210.55122375 C169.4951725 210.54311928 169.4951725 210.54311928 170.72943115 210.53485107 C174.41985861 211.44891048 177.0012545 213.0895459 179.20161438 216.14717102 C180.06805128 219.37751573 180.0122474 222.50189187 179.96211243 225.83100891 C179.97547386 227.28550194 179.97547386 227.28550194 179.98910522 228.76937866 C180.01039226 231.97021538 179.98807969 235.16903999 179.96333313 238.36982727 C179.96483537 240.59512539 179.96826496 242.82042297 179.97354126 245.04571533 C179.97787331 249.70716192 179.96102791 254.36791686 179.9289093 259.0292511 C179.88910561 265.00743993 179.89843628 270.9843334 179.92314434 276.96256351 C179.93731792 281.55653525 179.9272485 286.15020373 179.90963173 290.74415398 C179.90377754 292.94859023 179.9050907 295.15305744 179.91365623 297.35748482 C179.92163668 300.43660233 179.89743637 303.51381291 179.86445618 306.59272766 C179.87728134 307.96198395 179.87728134 307.96198395 179.8903656 309.35890198 C179.81648492 313.34987076 179.71332415 315.46575408 177.27392578 318.71417236 C172.91700631 320.74634259 169.13652767 320.68776504 164.38179016 320.6295929 C163.39743988 320.6335054 162.4130896 320.63741791 161.39891052 320.64144897 C159.26492579 320.64741986 157.13090031 320.64426141 154.9969368 320.63302612 C151.61703391 320.61576839 148.23798669 320.62327062 144.858078 320.63728333 C136.46338897 320.66693878 128.0688631 320.65374845 119.67414856 320.6421051 C112.58049919 320.63389789 105.48722342 320.64185749 98.39362717 320.67123413 C95.06816546 320.67832246 91.74336318 320.66165596 88.41795349 320.64411926 C86.37204129 320.64982828 84.32613178 320.65664612 82.28022766 320.66474915 C81.35947449 320.6534346 80.43872131 320.64212006 79.49006653 320.63046265 C73.545753 320.68663032 70.08518435 321.70787022 65.20161438 325.14717102 C61.98211685 328.78208758 61.85317301 332.1102916 61.80317688 336.76826477 C62.83266122 342.91489184 66.69095971 347.16983363 70.70161438 351.64717102 C74.81645035 356.34181627 78.81175813 361.09001091 82.63911438 366.02217102 C86.59683775 371.11723724 90.62038772 376.15041137 94.70161438 381.14717102 C99.20880661 386.66955622 103.64946325 392.23686427 108.03535461 397.85591125 C111.55536584 402.35380948 115.15018326 406.78702804 118.76411438 411.20967102 C123.49126713 416.99711972 128.08001213 422.86536192 132.61177063 428.80732727 C136.08341092 433.32005297 139.70185041 437.71358947 143.3039093 442.12226868 C147.38952263 447.12911822 151.41273356 452.18039005 155.38227844 457.27973938 C157.34794598 459.80263534 159.32687851 462.29667982 161.38130188 464.74873352 C169.50405954 474.45179422 175.39207333 485.07733798 179.20161438 497.14717102 C179.52502808 498.05519974 179.84844177 498.96322845 180.18165588 499.89877319 C184.26609749 512.907039 183.49747309 527.08939522 183.46723938 540.55732727 C183.46859036 542.69953454 183.47053447 544.84174152 183.47303772 546.98394775 C183.475968 551.4492742 183.47175894 555.91452004 183.46235657 560.37983704 C183.45095643 566.0671813 183.45753858 571.75433685 183.4695015 577.44167423 C183.4767711 581.85750723 183.47440899 586.27329638 183.46924591 590.68913078 C183.46792385 592.78483033 183.46950574 594.88053402 183.47420502 596.97622871 C183.53548827 631.97132601 175.27465945 662.54534469 150.20161438 688.14717102 C148.86400721 689.35329318 147.51057409 690.54218575 146.13911438 691.70967102 C137.34037274 699.24644175 130.45035219 707.42101961 128.75360107 719.27787781 C128.58763816 722.6133032 128.57383125 725.91346461 128.62153625 729.25263977 C128.61908401 730.50308075 128.61663177 731.75352173 128.61410522 733.04185486 C128.61194454 735.73679904 128.61856467 738.42993935 128.64059448 741.12461853 C128.6748129 745.39685286 128.67031015 749.66854357 128.66047668 753.94087219 C128.64489982 763.00975378 128.67099368 772.07834534 128.70161438 781.14717102 C128.73468694 790.94215643 128.76028302 800.73682885 128.73773813 810.53186893 C128.72940976 814.76723284 128.74490918 819.00159561 128.77953339 823.23681641 C128.80002682 826.50512141 128.78810206 829.77335629 128.7816925 833.04170227 C128.79817337 834.19530243 128.81465424 835.34890259 128.83163452 836.53746033 C128.75933258 846.34008585 126.30620149 855.21478405 119.57661438 862.58467102 C111.81010237 869.5876535 103.24032586 871.90175027 92.9980011 871.7624054 C91.93795868 871.76795441 90.87791626 871.77350342 89.78575134 871.77922058 C86.31712688 871.79093403 82.84983295 871.76682779 79.38130188 871.74092102 C76.95235758 871.73920786 74.52341143 871.73927768 72.09446716 871.74104309 C67.01916162 871.73939463 61.94430032 871.72078054 56.86909485 871.68916321 C50.37840949 871.64944552 43.88830393 871.64512613 37.39752007 871.65262604 C32.38736197 871.65570156 27.37733312 871.64355505 22.36720657 871.62649536 C19.97431881 871.61948792 17.5814164 871.61633808 15.18851852 871.6171875 C11.84089121 871.6153811 8.49394708 871.59392759 5.1464386 871.5670929 C4.16749634 871.5700235 3.18855408 871.5729541 2.1799469 871.57597351 C-7.8545803 871.45245309 -16.03504861 868.5813764 -23.79838562 862.14717102 C-31.70592423 853.76754055 -32.23613053 844.31457015 -32.18149567 833.32200813 C-32.18523507 831.91043379 -32.19028594 830.49886242 -32.1965245 829.0872969 C-32.20986725 825.20517745 -32.20454903 821.32327353 -32.19619101 817.44114841 C-32.19038768 813.21886819 -32.20193056 808.99662952 -32.21125269 804.77436054 C-32.22517476 797.37314697 -32.22789588 789.97199453 -32.2232933 782.57077026 C-32.21646683 771.56488836 -32.22671161 760.55906845 -32.24025086 749.55319515 C-32.26517895 728.75434517 -32.26967902 707.95552083 -32.26778489 687.15665831 C-32.26641261 671.09762354 -32.27022562 655.03859769 -32.27770996 638.97956467 C-32.27876029 636.67357829 -32.27980791 634.36759191 -32.28085282 632.06160554 C-32.28137217 630.9169508 -32.28189151 629.77229606 -32.28242659 628.59295482 C-32.28294674 627.44622347 -32.28346688 626.29949213 -32.28400278 625.11801136 C-32.28452677 623.96938252 -32.28505077 622.82075368 -32.28559064 621.63731791 C-32.30017696 589.32470019 -32.30845506 557.01208574 -32.30384064 524.6994648 C-32.30366868 523.48096826 -32.30349673 522.26247171 -32.30331956 521.00705103 C-32.30243065 514.83102066 -32.30148584 508.6549903 -32.30052155 502.47895993 C-32.30033052 501.25234834 -32.30013949 500.02573675 -32.29994266 498.76195511 C-32.29955557 496.28144803 -32.29916525 493.80094096 -32.29877169 491.32043389 C-32.29280076 452.717896 -32.30824284 414.11541805 -32.34037781 375.51289368 C-32.37643885 332.15720455 -32.39578965 288.80155342 -32.3908391 245.44584835 C-32.39036911 240.82470187 -32.38995886 236.20355539 -32.3895874 231.58240891 C-32.38948502 230.44453914 -32.38938263 229.30666938 -32.38927714 228.13431871 C-32.38808139 210.9433251 -32.40006155 193.75237249 -32.41873169 176.56138992 C-32.43994949 157.01495626 -32.44383815 137.46860873 -32.4244321 117.92217125 C-32.41409074 106.97964394 -32.41761454 96.0373266 -32.44096295 85.09481819 C-32.45517296 77.78835213 -32.45125659 70.48204178 -32.43251719 63.17558629 C-32.42234707 59.01069546 -32.4200882 54.84621393 -32.43983787 50.68134834 C-32.45765221 46.89047023 -32.4523505 43.10034588 -32.42880948 39.30950543 C-32.42227821 37.30783874 -32.44020972 35.30613752 -32.45920932 33.30455035 C-32.3621225 23.58741934 -30.10640383 16.59045785 -23.54838562 9.33467102 C-16.514067 2.82369339 -9.47299 0.03308722 0 0 Z " fill="#FDFDFD" transform="translate(313.7983856201172,169.8528289794922)"/>
<path d="M0 0 C0.70255859 -0.00538554 1.40511719 -0.01077108 2.12896544 -0.01631981 C4.47113196 -0.03056909 6.81273088 -0.02350346 9.15492249 -0.01637268 C10.83901421 -0.02207785 12.52310206 -0.02904268 14.20718384 -0.03717041 C18.77332448 -0.05510069 23.33927293 -0.05393369 27.90543818 -0.04822803 C31.72007236 -0.04513601 35.53466962 -0.05122877 39.34929854 -0.05726677 C48.34964196 -0.07130994 57.34989046 -0.06975242 66.35023499 -0.05836487 C75.62978615 -0.04688338 84.9090483 -0.0609603 94.18856138 -0.08776134 C102.16157023 -0.10992521 110.13448841 -0.11655418 118.10752589 -0.11068493 C122.86687902 -0.10731585 127.62604689 -0.10972719 132.38537407 -0.12693596 C136.86131422 -0.14241399 141.33682656 -0.13844011 145.81274986 -0.11963081 C147.45300973 -0.11594732 149.09330136 -0.11904646 150.73353195 -0.1295166 C152.97771198 -0.1427455 155.22047953 -0.13116425 157.46459961 -0.11352539 C158.71874129 -0.11331611 159.97288298 -0.11310682 161.26502895 -0.1128912 C165.69810513 0.51560488 168.04985298 1.96411611 171.79579163 4.38768005 C172.66204163 4.94455505 173.52829163 5.50143005 174.42079163 6.07518005 C179.79245446 11.30548334 182.11372482 16.42101622 182.35829163 23.95018005 C182.04980067 31.29397862 180.12583749 35.76637846 175.29579163 41.20018005 C169.25539968 46.48552301 164.95699721 48.62939176 156.76998901 48.66856384 C156.07448509 48.67450609 155.37898117 48.68044833 154.66240138 48.68657064 C152.33808187 48.7038767 150.01396921 48.70695525 147.68959045 48.70994568 C146.02036604 48.71920696 144.35114584 48.72925695 142.68193054 48.74003601 C138.15070953 48.76624281 133.61954773 48.77916608 129.0882628 48.78805733 C126.25472297 48.79392612 123.42119919 48.80213716 120.58766747 48.81106567 C111.71471668 48.83840618 102.84180275 48.85774346 93.96881276 48.86546946 C83.74022852 48.87442569 73.51217952 48.90950144 63.28375798 48.96747065 C55.36848102 49.0107665 47.4533543 49.03088134 39.53796023 49.03355169 C34.81468687 49.03564358 30.09191695 49.04736713 25.36876869 49.08319092 C20.92226213 49.11626086 16.47663444 49.12041258 12.03004837 49.1029129 C10.40392507 49.10137779 8.77775348 49.10998355 7.15175056 49.12982941 C-2.20227076 49.23724371 -9.76245168 48.79763489 -17.20420837 42.38768005 C-22.97581811 36.11600679 -24.70745646 29.58015599 -24.51280212 21.12986755 C-23.73624719 14.22934141 -19.96732871 9.70586408 -15.18077087 4.9306488 C-10.29436504 1.11616204 -6.14685706 0.0119131 0 0 Z " fill="#01AF9A" transform="translate(497.20420837402344,930.6123199462891)"/>
<path d="M0 0 C1.05172119 -0.00913666 1.05172119 -0.00913666 2.12468928 -0.01845789 C4.46217408 -0.03503907 6.7991112 -0.03031924 9.13664246 -0.0255127 C10.81749027 -0.03285597 12.49833304 -0.04144295 14.1791687 -0.05117798 C18.73716831 -0.0733777 23.29498705 -0.07632536 27.8530333 -0.07443047 C31.66251052 -0.07431067 35.47194954 -0.08287861 39.28141612 -0.09120798 C48.2722467 -0.11043722 57.26298444 -0.11332792 66.25382996 -0.10656738 C75.51748701 -0.09992961 84.78074559 -0.12278142 94.04432184 -0.15988111 C102.00717356 -0.19061006 109.96989733 -0.2019346 117.93280715 -0.1980443 C122.68445094 -0.19597978 127.43578475 -0.2014098 132.18737221 -0.22593689 C136.65845995 -0.24825382 141.12890165 -0.24628534 145.59999275 -0.22600937 C147.23619339 -0.22260783 148.87243793 -0.22765142 150.50857925 -0.24199295 C160.06603828 -0.31995387 168.00846426 -0.06857133 175.34112263 6.83707428 C180.61785064 12.70981432 182.34885145 17.90378685 182.08659363 25.65612793 C181.3799468 32.6330213 178.54225478 37.20342815 174.11393738 42.53503418 C165.81429327 49.23101824 156.7144876 48.97415401 146.52433777 48.92785645 C144.8840762 48.93492339 143.24382116 48.94367165 141.60357666 48.95396423 C137.16958753 48.9763812 132.73595664 48.9735366 128.30193257 48.96464276 C124.59180409 48.95951649 120.88174196 48.9668387 117.17162031 48.97411484 C108.41510984 48.99108942 99.65877374 48.98757265 90.90226746 48.9708252 C81.8867807 48.95390473 72.87177817 48.96974285 63.85634428 49.00204808 C56.09807265 49.02878905 48.33995134 49.03600787 40.58163828 49.02753299 C35.95577553 49.0226171 31.33020402 49.02474673 26.70437813 49.04532051 C22.35305156 49.06374877 18.00241863 49.05763241 13.65112877 49.03312111 C12.06050584 49.02813583 10.4698294 49.03154329 8.87924957 49.04426956 C-1.43452935 49.12021988 -9.52355419 48.18972881 -17.62825012 41.33190918 C-18.14387512 40.69253418 -18.65950012 40.05315918 -19.19075012 39.39440918 C-19.99512512 38.43534668 -19.99512512 38.43534668 -20.81575012 37.45690918 C-25.00695752 31.17009808 -24.89209606 24.72746928 -24.19075012 17.39440918 C-22.19864835 10.02243975 -16.91573555 5.56482905 -10.51663685 1.83629608 C-6.73777292 0.1980279 -4.106966 0.01223953 0 0 Z " fill="#00AE99" transform="translate(497.1907501220703,992.6055908203125)"/>
<path d="M0 0 C0.69873305 -0.00523668 1.39746609 -0.01047336 2.11737287 -0.01586872 C4.45862674 -0.03086965 6.79966207 -0.0315739 9.14096069 -0.03224182 C10.81988901 -0.03986349 12.49881383 -0.048291 14.17773438 -0.0574646 C18.74001365 -0.07942145 23.30222588 -0.08821061 27.86455202 -0.09329104 C30.71701508 -0.09693457 33.56946059 -0.10317475 36.42191696 -0.11029243 C46.379705 -0.13479537 56.33744093 -0.14783972 66.29525757 -0.15138245 C75.56565409 -0.15501378 84.83571873 -0.18487809 94.10601389 -0.22678703 C102.07222613 -0.26153304 110.03832867 -0.27693167 118.00461614 -0.27762848 C122.75913277 -0.27842012 127.51331169 -0.28710572 132.26774979 -0.31562614 C136.74453659 -0.34187926 141.22070756 -0.34397183 145.69753647 -0.3279705 C147.3349365 -0.32616149 148.97237251 -0.33279704 150.60969543 -0.34878922 C160.31816863 -0.43778361 169.04538913 -0.15301407 176.65444374 6.71688175 C177.99398804 8.21165466 177.99398804 8.21165466 180.05648804 11.27415466 C180.65461304 12.16102966 181.25273804 13.04790466 181.86898804 13.96165466 C184.53402523 21.39570577 183.66070927 28.84728133 180.45101929 35.98118591 C176.65149518 42.2285827 170.91046885 45.97783291 164.05648804 48.27415466 C160.61498547 48.6544714 160.61498547 48.6544714 156.94203186 48.66183472 C156.2611533 48.66722025 155.58027474 48.67260579 154.8787635 48.67815453 C152.61579526 48.69236883 150.35341741 48.68534691 148.09042358 48.6782074 C146.46031222 48.68391451 144.83020486 48.69088009 143.20010376 48.69900513 C138.78464055 48.71691672 134.3693763 48.7157716 129.9538877 48.71006274 C126.2612668 48.70696715 122.5686839 48.71306766 118.87606841 48.71910149 C110.15989018 48.73313935 101.44380997 48.73159236 92.72763062 48.72019958 C83.75201439 48.70872654 74.77669726 48.72278201 65.80112046 48.74959606 C58.08112036 48.77179101 50.36121388 48.77838168 42.64118415 48.77251965 C38.03656688 48.76915703 33.43214117 48.77151839 28.82755089 48.78877068 C24.49439869 48.80429772 20.16168739 48.80022083 15.82855225 48.78146553 C14.2443786 48.77779513 12.66017187 48.78084264 11.07602882 48.79135132 C0.47552305 48.85626513 -8.64705091 48.33136101 -16.88101196 41.02415466 C-22.48180294 34.77610246 -23.54341116 28.43844915 -23.28335571 20.16868591 C-22.40096113 12.65311823 -18.59423556 8.46519206 -12.94351196 3.71946716 C-8.54097763 0.53794821 -5.48225762 0.02036833 0 0 Z " fill="#01AE9A" transform="translate(495.9435119628906,869.7258453369141)"/>
<path d="M0 0 C1.43653931 -0.00361794 1.43653931 -0.00361794 2.90209961 -0.00730896 C4.92273101 -0.00633141 6.94338949 0.00704024 8.96386719 0.03198242 C12.05236009 0.0662936 15.13799116 0.05263584 18.2265625 0.03320312 C20.19272048 0.04010182 22.1588711 0.04977441 24.125 0.0625 C25.04595459 0.05754013 25.96690918 0.05258026 26.91577148 0.04747009 C31.14753584 0.12499886 33.46237187 0.25406569 37.12109375 2.53930664 C39.7961834 5.4185939 40.19059827 6.97643265 40.25537109 10.79980469 C40.27143402 11.66120056 40.28749695 12.52259644 40.30404663 13.41009521 C40.34854546 17.35639655 40.38957333 21.30252971 40.41259766 25.24902344 C40.42914315 27.32856447 40.4564145 29.40804897 40.49462891 31.48730469 C40.5494893 34.48792988 40.57128701 37.48722158 40.5859375 40.48828125 C40.60860687 41.41348572 40.63127625 42.33869019 40.65463257 43.29193115 C40.64024416 47.70434212 40.49144168 50.69139406 37.65478516 54.20019531 C34.52565608 57.1318751 33.19505361 57.7498763 29.05932617 57.8059082 C27.82245308 57.82516106 27.82245308 57.82516106 26.56059265 57.84480286 C25.66790176 57.85218979 24.77521088 57.85957672 23.85546875 57.8671875 C22.93792313 57.87525925 22.0203775 57.88333099 21.07502747 57.89164734 C19.13068534 57.90549118 17.18631888 57.91621199 15.24194336 57.92407227 C12.27215348 57.9412779 9.30347887 57.98516007 6.33398438 58.02929688 C4.44532069 58.03942443 2.55664754 58.04794034 0.66796875 58.0546875 C-0.66195854 58.08094963 -0.66195854 58.08094963 -2.01875305 58.10774231 C-6.19049554 58.09310904 -8.36371032 57.98808393 -11.9753418 55.72729492 C-14.73094924 52.78036871 -15.06704923 51.18606274 -15.13037109 47.25854492 C-15.14643402 46.35387985 -15.16249695 45.44921478 -15.17904663 44.51713562 C-15.22348861 40.37788625 -15.26456103 36.23879738 -15.28759766 32.09936523 C-15.3041593 29.91598859 -15.33145188 27.73266621 -15.36962891 25.54956055 C-15.42438444 22.40254575 -15.44626989 19.25680195 -15.4609375 16.109375 C-15.48360687 15.13526169 -15.50627625 14.16114838 -15.52963257 13.15751648 C-15.51600932 8.78799316 -15.34607381 6.29483459 -13.02587891 2.51318359 C-8.64812019 -0.15776833 -5.04054763 -0.07256453 0 0 Z " fill="#4E96FA" transform="translate(569.9375,333.37109375)"/>
<path d="M0 0 C0.86653702 -0.00336868 1.73307404 -0.00673737 2.62586975 -0.01020813 C4.45400949 -0.00990984 6.28219987 0.00528677 8.11010742 0.03442383 C10.89853728 0.07405362 13.6821964 0.05514145 16.47070312 0.02929688 C18.25132043 0.03685795 20.03192721 0.04781339 21.8125 0.0625 C22.64079819 0.0555159 23.46909637 0.0485318 24.32249451 0.04133606 C28.21393568 0.13555818 31.23310667 0.48738977 34.49975586 2.71166992 C37.91524502 6.92429763 37.81004131 9.98392291 37.69921875 15.26171875 C37.70021576 16.17501953 37.70121277 17.08832031 37.70223999 18.02929688 C37.69756936 19.95581793 37.67817509 21.88235236 37.64501953 23.80859375 C37.59780546 26.75241548 37.60390361 29.69261424 37.6171875 32.63671875 C37.60603333 34.51174028 37.59181315 36.38674659 37.57421875 38.26171875 C37.57695297 39.5775293 37.57695297 39.5775293 37.57974243 40.91992188 C37.4842956 45.04717801 37.30891626 47.22878483 35.06005859 50.79296875 C29.78600397 55.76723501 20.89838023 54.1075885 14.0065918 54.16674805 C12.11415365 54.18833603 10.22181557 54.22244861 8.32983398 54.26928711 C5.59964479 54.33626076 2.87151954 54.36374036 0.140625 54.3828125 C-1.12368095 54.42455849 -1.12368095 54.42455849 -2.41352844 54.46714783 C-6.8241216 54.45173566 -8.52521883 54.16832792 -12.05883789 51.30688477 C-14.82123377 47.27485275 -14.74814229 43.16618266 -14.69140625 38.41796875 C-14.69618988 37.53065063 -14.70097351 36.64333252 -14.7059021 35.72912598 C-14.70929265 33.85992654 -14.70014947 31.99066713 -14.67919922 30.12158203 C-14.6524197 27.26980656 -14.6789738 24.42196639 -14.7109375 21.5703125 C-14.70763325 19.74868928 -14.7012267 17.9270685 -14.69140625 16.10546875 C-14.7015274 15.25843384 -14.71164856 14.41139893 -14.72207642 13.53869629 C-14.64429093 9.58530502 -14.33025057 6.53459155 -12.05004883 3.2253418 C-7.96153747 -0.10695512 -5.13229168 -0.09446203 0 0 Z " fill="#0359EF" transform="translate(477.02734375,301.23828125)"/>
<path d="M0 0 C0.86653702 -0.00336868 1.73307404 -0.00673737 2.62586975 -0.01020813 C4.45400949 -0.00990984 6.28219987 0.00528677 8.11010742 0.03442383 C10.89853728 0.07405362 13.6821964 0.05514145 16.47070312 0.02929688 C18.25132043 0.03685795 20.03192721 0.04781339 21.8125 0.0625 C22.64079819 0.0555159 23.46909637 0.0485318 24.32249451 0.04133606 C28.21393568 0.13555818 31.23310667 0.48738977 34.49975586 2.71166992 C37.91524502 6.92429763 37.81004131 9.98392291 37.69921875 15.26171875 C37.70021576 16.17501953 37.70121277 17.08832031 37.70223999 18.02929688 C37.69756936 19.95581793 37.67817509 21.88235236 37.64501953 23.80859375 C37.59780546 26.75241548 37.60390361 29.69261424 37.6171875 32.63671875 C37.60603333 34.51174028 37.59181315 36.38674659 37.57421875 38.26171875 C37.57695297 39.5775293 37.57695297 39.5775293 37.57974243 40.91992188 C37.4842956 45.04717801 37.30891626 47.22878483 35.06005859 50.79296875 C29.85023031 55.70665943 21.23783967 54.06701739 14.43383789 54.11181641 C12.58995945 54.1283709 10.74614506 54.15565444 8.90258789 54.19384766 C6.2420122 54.2486754 3.58293988 54.27049854 0.921875 54.28515625 C0.10087814 54.30782562 -0.72011871 54.330495 -1.56599426 54.35385132 C-5.95244571 54.33769895 -7.51015292 54.18802724 -11.02416992 51.29150391 C-11.68521729 50.4566748 -12.34626465 49.6218457 -13.02734375 48.76171875 C-13.35734375 48.43171875 -13.68734375 48.10171875 -14.02734375 47.76171875 C-14.32063934 42.01052632 -14.34149365 36.25673504 -14.37744141 30.4987793 C-14.39396779 28.55790183 -14.42121387 26.61708439 -14.45947266 24.67651367 C-14.51438273 21.87777129 -14.53614023 19.08045936 -14.55078125 16.28125 C-14.57345062 15.41852982 -14.59612 14.55580963 -14.61947632 13.66694641 C-14.60550689 9.66159676 -14.37286434 6.57202396 -12.05883789 3.21435547 C-7.96236683 -0.09990307 -5.12877176 -0.09439724 0 0 Z " fill="#0257ED" transform="translate(557.02734375,502.23828125)"/>
<path d="M0 0 C1.30336304 -0.00361794 1.30336304 -0.00361794 2.63305664 -0.00730896 C4.46537858 -0.00633191 6.29773055 0.0070278 8.12988281 0.03198242 C10.92875811 0.06629907 13.7244755 0.05263353 16.5234375 0.03320312 C18.30730506 0.04010189 20.09116449 0.04977456 21.875 0.0625 C23.12518921 0.0550602 23.12518921 0.0550602 24.40063477 0.04747009 C28.42977322 0.12882372 30.46201069 0.32650834 33.94140625 2.53930664 C39.01471573 7.85027237 37.24394435 17.04535702 37.28759766 24.0222168 C37.30415444 25.963094 37.33144088 27.90391031 37.36962891 29.84448242 C37.4244334 32.6440389 37.44627664 35.44216663 37.4609375 38.2421875 C37.48360687 39.10693192 37.50627625 39.97167633 37.52963257 40.86262512 C37.51405536 45.31173491 37.39253083 47.05737239 34.52978516 50.65307617 C30.21536473 53.94151133 26.8736292 53.81885696 21.60546875 53.8671875 C20.77670731 53.87525925 19.94794586 53.88333099 19.09407043 53.89164734 C17.33804415 53.90548846 15.58199096 53.91621049 13.82592773 53.92407227 C11.14579991 53.94127276 8.46690972 53.98515551 5.78710938 54.02929688 C4.08073824 54.03942504 2.37435661 54.04794076 0.66796875 54.0546875 C-0.13115433 54.07219559 -0.9302774 54.08970367 -1.75361633 54.10774231 C-5.72219676 54.09234306 -7.61202378 53.91606226 -11.0456543 51.72729492 C-13.75042377 48.91316907 -14.18833898 47.4129943 -14.25537109 43.62573242 C-14.27143402 42.80115036 -14.28749695 41.9765683 -14.30404663 41.1269989 C-14.34852528 37.35412426 -14.38956263 33.58142516 -14.41259766 29.80834961 C-14.42915551 27.81897278 -14.45644328 25.8296554 -14.49462891 23.84057617 C-14.54942264 20.9715287 -14.57127517 18.10387538 -14.5859375 15.234375 C-14.60860687 14.34775681 -14.63127625 13.46113861 -14.65463257 12.5476532 C-14.64026429 8.34290003 -14.41296985 6.17449739 -12.09619141 2.56787109 C-7.96342345 -0.07356164 -4.81273461 -0.0765583 0 0 Z " fill="#0259EE" transform="translate(539.0625,240.37109375)"/>
<path d="M0 0 C5.0728168 3.058985 9.11497793 7.90505694 11.33203125 13.40625 C12.31600778 20.6716581 11.48554446 27.27981802 7.33203125 33.40625 C3.10462744 37.93684876 -1.31595889 42.06885816 -7.65625 42.70703125 C-17.56924967 42.74197719 -23.41777334 41.32689107 -30.66796875 34.40625 C-35.10654998 28.13101446 -35.21237384 21.89982601 -34.66796875 14.40625 C-32.92424076 7.54758657 -28.25929886 3.44649684 -22.66796875 -0.59375 C-15.16099806 -4.22388137 -7.48209837 -3.29919298 0 0 Z " fill="#055EF0" transform="translate(554.66796875,430.59375)"/>
<path d="M0 0 C5.71991778 2.62342094 9.59010224 6.00303168 12.640625 11.578125 C14.86817858 18.49526506 14.36142118 23.69332073 11.234375 30.1484375 C8.51852168 34.23730556 4.54107977 37.38632741 -0.1484375 38.90625 C-6.35300167 40.00821893 -11.87089418 39.95326383 -17.171875 36.265625 C-22.57104845 30.79938107 -25.33349602 27.448836 -25.609375 19.640625 C-25.55536479 13.77751629 -24.99571209 10.23376726 -21.00390625 5.88671875 C-14.5375967 0.16493098 -8.6462181 -2.92354137 0 0 Z " fill="#00AC99" transform="translate(572.171875,796.734375)"/>
<path d="M0 0 C4.59433484 2.78222668 8.26931297 7.1126264 9.9609375 12.1875 C10.7370352 18.42954292 10.31666504 23.26497583 6.55859375 28.42578125 C2.88841025 32.47285401 -0.50019008 34.80599391 -5.9765625 35.62890625 C-13.53077957 35.92163216 -17.85226704 34.82958483 -23.5703125 29.85546875 C-27.87215983 25.13538627 -27.82103974 19.71952996 -27.5859375 13.57421875 C-26.63072726 7.65873816 -23.88951688 4.51304553 -19.36328125 0.8203125 C-13.23580856 -3.2646693 -6.5166486 -2.67878045 0 0 Z " fill="#0258EE" transform="translate(575.0390625,600.8125)"/>
<path d="M0 0 C5.21875862 2.0249442 8.92181729 5.32116228 12 10 C13.84152373 15.52457118 13.8169855 20.91005661 11.375 26.25 C8.73330656 30.93597212 5.36891878 33.65547853 0.6875 36.3125 C-5.11054042 37.79571964 -10.02996539 37.94005273 -15.3125 34.875 C-19.733745 31.77484414 -22.29132628 28.12602117 -24 23 C-24.49395115 17.84185438 -24.67234574 13.42537296 -22.4375 8.6875 C-21.633125 7.800625 -20.82875 6.91375 -20 6 C-19.54882812 5.44183594 -19.09765625 4.88367188 -18.6328125 4.30859375 C-13.41742718 -1.28302583 -7.232326 -1.19645887 0 0 Z " fill="#00AD9A" transform="translate(572,734)"/>
<path d="M0 0 C5.71318102 2.51859698 10.06038038 6.74185451 12.859375 12.33984375 C13.49001082 18.2945012 12.93091331 23.08850406 9.859375 28.33984375 C6.1358775 32.24322036 2.00917799 35.88610329 -3.47265625 36.67578125 C-9.63999052 36.77290462 -13.15014491 36.03279902 -18.140625 32.33984375 C-23.32860306 26.87143444 -24.73155339 21.52526798 -24.58203125 14.12890625 C-23.72417842 8.708491 -20.58918578 5.39780079 -16.5 1.9609375 C-11.31412688 -1.51650546 -5.82829257 -1.7974114 0 0 Z " fill="#00AF9B" transform="translate(572.140625,676.66015625)"/>
<path d="M0 0 C0.66 0.99 1.32 1.98 2 3 C1.51288315 3.81156852 1.51288315 3.81156852 1.01592556 4.63953237 C-0.22054129 7.51242 -0.25195461 9.64095383 -0.25480902 12.76748204 C-0.26073703 13.95474015 -0.26666503 15.14199827 -0.27277267 16.3652339 C-0.26912299 17.6734978 -0.26547331 18.98176169 -0.26171303 20.32966995 C-0.26489938 21.73619592 -0.26896145 23.14272013 -0.27382231 24.5492413 C-0.2846932 28.4358847 -0.283051 32.32243975 -0.27947159 36.20909304 C-0.27777094 40.42921748 -0.28761461 44.64931706 -0.29602563 48.86943126 C-0.30917615 56.27276158 -0.31488511 63.67606903 -0.31578636 71.07941055 C-0.3171599 82.08797998 -0.32992835 93.09651533 -0.3450741 104.10507337 C-0.37022427 122.62136827 -0.38606995 141.13766032 -0.39665604 159.65396881 C-0.40717141 177.99369169 -0.42179578 196.33340366 -0.44193649 214.67311859 C-0.44318536 215.81242069 -0.44443423 216.95172278 -0.44572094 218.12554918 C-0.45208448 223.91123033 -0.45852172 229.6969114 -0.46498732 235.48259243 C-0.51067869 276.48773823 -0.54711403 317.49288757 -0.578125 358.49804688 C-0.60827729 398.33984902 -0.64261038 438.18164397 -0.68261719 478.0234375 C-0.68384819 479.25102535 -0.68507919 480.47861321 -0.6863475 481.7434007 C-0.6987141 494.07107703 -0.71116585 506.39875328 -0.72367998 518.72642947 C-0.74917193 543.84046665 -0.77409551 568.95450439 -0.79867554 594.06854248 C-0.79980645 595.22330522 -0.80093736 596.37806795 -0.80210253 597.5678235 C-0.87758787 674.71187396 -0.93982295 751.85593626 -1 829 C-1.33 829 -1.66 829 -2 829 C-2.03426597 750.51295683 -2.06606671 672.02591276 -2.08468628 593.53886414 C-2.08496239 592.37793069 -2.08523851 591.21699724 -2.08552299 590.02088399 C-2.09150828 564.79296806 -2.09704872 539.56505205 -2.10213066 514.33713593 C-2.10462541 501.96604959 -2.10721851 489.59496326 -2.10986328 477.22387695 C-2.1101248 475.99278037 -2.11038632 474.76168379 -2.11065576 473.49328124 C-2.1191842 433.56273615 -2.13421111 393.63219669 -2.15259444 353.70165502 C-2.17144552 312.6807798 -2.18376761 271.65990771 -2.18782998 230.63902823 C-2.18840632 224.85013876 -2.1890576 219.0612493 -2.18975449 213.27235985 C-2.18988933 212.13298097 -2.19002418 210.99360209 -2.19016311 209.81969657 C-2.19253002 191.45089617 -2.20181549 173.08210542 -2.21366407 154.71330896 C-2.22541819 136.26340362 -2.22994108 117.81350788 -2.22700275 99.36359892 C-2.22547724 88.39124054 -2.22957587 77.41891718 -2.24159509 66.4465651 C-2.24906861 59.12631941 -2.2493459 51.80609678 -2.24366363 44.48584953 C-2.24063056 40.30893908 -2.24082875 36.1320951 -2.24976636 31.95519165 C-2.25782742 28.15927595 -2.25677115 24.36347891 -2.24827995 20.56756514 C-2.2461659 18.55095727 -2.25392185 16.53434654 -2.26201695 14.51775381 C-2.25752237 13.32538157 -2.25302778 12.13300933 -2.24839699 10.9045046 C-2.24870895 9.87706023 -2.24902092 8.84961585 -2.24934233 7.7910368 C-1.9866647 4.8507301 -1.23252892 2.66789889 0 0 Z " fill="#EEEFF3" transform="translate(284,188)"/>
<path d="M0 0 C55.44 0 110.88 0 168 0 C168.33 0.99 168.66 1.98 169 3 C85.84 3.495 85.84 3.495 1 4 C0.67 2.68 0.34 1.36 0 0 Z " fill="#E7E7EC" transform="translate(307,170)"/>
<path d="M0 0 C3.9672797 0.26448531 5.67929288 0.7934343 8.75 3.25 C11.33056911 6.69075881 11.31570071 10.07795725 10.75 14.25 C9.19611732 17.18638124 7.45206405 19.30771295 4.75 21.25 C1.63165476 22.14963956 0.09908684 21.83476119 -3.25 21.25 C-6.64890142 19.18110348 -9.13937011 17.13720463 -10.25 13.25 C-10.16804478 8.74246294 -9.73833209 6.8115819 -6.75 3.375 C-5.5125 2.323125 -5.5125 2.323125 -4.25 1.25 C-3.25 0.25 -3.25 0.25 0 0 Z " fill="#001337" transform="translate(651.25,882.75)"/>
<path d="M0 0 C4.17636392 0.26966588 7.23399016 0.53989616 10.171875 3.71484375 C12.4299495 7.64826385 12.75859062 9.62648636 12.109375 14.08984375 C10.85481528 16.91260311 9.82552778 18.55272916 7.359375 20.40234375 C4.0883132 21.40183486 1.51194912 21.44800945 -1.890625 21.08984375 C-5.26084102 18.99282045 -7.78192039 16.97030988 -8.890625 13.08984375 C-8.80866978 8.58230669 -8.37895709 6.65142565 -5.390625 3.21484375 C-4.153125 2.16296875 -4.153125 2.16296875 -2.890625 1.08984375 C-1.890625 0.08984375 -1.890625 0.08984375 0 0 Z " fill="#001439" transform="translate(649.890625,1005.91015625)"/>
<path d="M0 0 C3.1293173 0.74342897 4.94179824 2.18840477 7.12109375 4.50390625 C8.72196002 7.70563879 8.62026464 11.02967684 8.12109375 14.50390625 C6.32745464 17.31394085 5.1022844 19.01331093 2.12109375 20.50390625 C-0.93811199 20.92462217 -3.82568085 20.98904742 -6.87890625 20.50390625 C-10.50509239 17.63317555 -12.57090162 15.39593471 -13.31640625 10.81640625 C-12.78068683 6.76024491 -11.55623409 4.82034548 -8.79296875 1.8671875 C-5.87962404 -0.2078274 -3.49920473 -0.27734 0 0 Z " fill="#011339" transform="translate(653.87890625,944.49609375)"/>
<path d="M0 0 C0.66 0.99 1.32 1.98 2 3 C1.51781006 3.76812012 1.51781006 3.76812012 1.02587891 4.55175781 C-0.34481976 7.82290636 -0.32694685 10.62917173 -0.4140625 14.171875 C-0.43342865 14.8542926 -0.4527948 15.53671021 -0.4727478 16.23980713 C-0.53231098 18.40974608 -0.57883446 20.57973877 -0.625 22.75 C-0.66320131 24.22528297 -0.7022543 25.70054415 -0.7421875 27.17578125 C-0.83799235 30.78365418 -0.92210916 34.39169083 -1 38 C-1.33 38 -1.66 38 -2 38 C-2.04957858 33.39186151 -2.08580385 28.78387963 -2.10986328 24.17553711 C-2.11989726 22.60910333 -2.13352754 21.04268817 -2.15087891 19.47631836 C-2.17524225 17.21984247 -2.18650916 14.96361506 -2.1953125 12.70703125 C-2.20563507 12.01100296 -2.21595764 11.31497467 -2.22659302 10.59785461 C-2.22750439 6.61415509 -1.7555827 3.58709891 0 0 Z " fill="#EEEEF3" transform="translate(284,188)"/>
<path d="M0 0 C3.84223567 1.50944973 5.51995823 3.76843042 8 7 C9.64783606 8.68528688 11.31002677 10.35697047 13 12 C12.01 13.485 12.01 13.485 11 15 C9.16374012 12.68977044 7.33088988 10.37697874 5.5 8.0625 C4.71302734 7.0734668 4.71302734 7.0734668 3.91015625 6.06445312 C0 1.11328125 0 1.11328125 0 0 Z " fill="#111A3D" transform="translate(376,511)"/>
<path d="M0 0 C0.33 0 0.66 0 1 0 C0.91253716 1.43861294 0.80434652 2.87597508 0.6875 4.3125 C0.62949219 5.11300781 0.57148438 5.91351562 0.51171875 6.73828125 C-0.08838825 9.39066259 -0.85708967 10.36503879 -3 12 C-3.66 12 -4.32 12 -5 12 C-3.68938409 7.76570244 -2.05643741 3.92592596 0 0 Z " fill="#222948" transform="translate(487,823)"/>
<path d="M0 0 C0.66 0.33 1.32 0.66 2 1 C0.02 3.31 -1.96 5.62 -4 8 C-4.66 7.34 -5.32 6.68 -6 6 C-4.02 4.02 -2.04 2.04 0 0 Z " fill="#151F40" transform="translate(462,858)"/>
<path d="M0 0 C0.66 0.66 1.32 1.32 2 2 C0.35 3.98 -1.3 5.96 -3 8 C-3.99 7.67 -4.98 7.34 -6 7 C-4.02 4.69 -2.04 2.38 0 0 Z " fill="#0253E1" transform="translate(748,522)"/>
<path d="M0 0 C0.33 0 0.66 0 1 0 C1 1.65 1 3.3 1 5 C1.66 5.33 2.32 5.66 3 6 C3 7.98 3 9.96 3 12 C2.01 11.67 1.02 11.34 0 11 C0 7.37 0 3.74 0 0 Z " fill="#01998D" transform="translate(548,746)"/>
<path d="M0 0 C0.66 0 1.32 0 2 0 C0.62845496 2.95409701 -0.98863724 5.44008376 -3 8 C-3.99 7.67 -4.98 7.34 -6 7 C-5.04882866 5.8274869 -4.08882991 4.66212985 -3.125 3.5 C-2.59132813 2.8503125 -2.05765625 2.200625 -1.5078125 1.53125 C-0.76144531 0.77328125 -0.76144531 0.77328125 0 0 Z " fill="#0354E0" transform="translate(735,538)"/>
<path d="M0 0 C0.66 0.99 1.32 1.98 2 3 C1.690625 3.53625 1.38125 4.0725 1.0625 4.625 C-0.17827439 7.3984957 -0.5909675 10.00042837 -1 13 C-1.33 13 -1.66 13 -2 13 C-2.16682272 8.07872966 -2.24828052 4.49656104 0 0 Z " fill="#CDCFD9" transform="translate(284,188)"/>
<path d="M0 0 C0.625 1.8125 0.625 1.8125 1 4 C0.01 5.485 0.01 5.485 -1 7 C-1.66 7 -2.32 7 -3 7 C-3.33 7.99 -3.66 8.98 -4 10 C-3.5205537 5.78087253 -2.83374881 3.20336822 0 0 Z " fill="#019A8B" transform="translate(552,682)"/>
<path d="M0 0 C-1 3 -1 3 -2.875 4.0625 C-3.57625 4.371875 -4.2775 4.68125 -5 5 C-5.99 5.66 -6.98 6.32 -8 7 C-8 6.01 -8 5.02 -8 4 C-2.74285714 0 -2.74285714 0 0 0 Z " fill="#0458E3" transform="translate(822,175)"/>
<path d="M0 0 C0.33 0 0.66 0 1 0 C1.33 1.65 1.66 3.3 2 5 C2.33 5 2.66 5 3 5 C3 6.65 3 8.3 3 10 C2.01 10 1.02 10 0 10 C0 6.7 0 3.4 0 0 Z " fill="#2E375A" transform="translate(496,786)"/>
</svg>
